<svg xmlns="http://www.w3.org/2000/svg" xmlns:xlink="http://www.w3.org/1999/xlink" contentStyleType="text/css" height="425px" preserveAspectRatio="none" style="width:656px;height:425px;background:#FFFFFF;" version="1.1" viewBox="0 0 656 425" width="656px" zoomAndPan="magnify"><defs/><g><!--cluster ms--><g id="cluster_ms"><rect fill="none" height="87" rx="2.5" ry="2.5" style="stroke:#181818;stroke-width:1.0;" width="309" x="7" y="7"/><path d="M178.1641,7 L178.1641,16.2969 L168.1641,26.2969 L7,26.2969 " fill="none" style="stroke:#181818;stroke-width:1.0;"/><text fill="#000000" font-family="sans-serif" font-size="14" font-weight="bold" lengthAdjust="spacing" textLength="161.1641" x="10" y="20.9951">Python microservice</text></g><!--cluster collector--><g id="cluster_collector"><rect fill="none" height="103" rx="2.5" ry="2.5" style="stroke:#181818;stroke-width:1.0;" width="220" x="377" y="224"/><path d="M591.8936,224 L591.8936,233.2969 L581.8936,243.2969 L377,243.2969 " fill="none" style="stroke:#181818;stroke-width:1.0;"/><text fill="#000000" font-family="sans-serif" font-size="14" font-weight="bold" lengthAdjust="spacing" textLength="204.8936" x="380" y="237.9951">OpenTelementry collector</text></g><!--entity otel--><g id="elem_otel"><rect fill="#F1F1F1" height="36.2969" rx="2.5" ry="2.5" style="stroke:#181818;stroke-width:0.5;" width="171.0127" x="23.5" y="42"/><text fill="#000000" font-family="sans-serif" font-size="14" lengthAdjust="spacing" textLength="151.0127" x="33.5" y="64.9951">OpenTelementry SDK</text></g><!--entity django--><g id="elem_django"><rect fill="#F1F1F1" height="36.2969" rx="2.5" ry="2.5" style="stroke:#181818;stroke-width:0.5;" width="69.5742" x="230" y="42"/><text fill="#000000" font-family="sans-serif" font-size="14" lengthAdjust="spacing" textLength="49.5742" x="240" y="64.9951">Django</text></g><!--entity db--><g id="elem_db"><path d="M196,156.5 C196,146.5 236.1704,146.5 236.1704,146.5 C236.1704,146.5 276.3408,146.5 276.3408,156.5 L276.3408,181.7969 C276.3408,191.7969 236.1704,191.7969 236.1704,191.7969 C236.1704,191.7969 196,191.7969 196,181.7969 L196,156.5 " fill="#F1F1F1" style="stroke:#181818;stroke-width:0.5;"/><path d="M196,156.5 C196,166.5 236.1704,166.5 236.1704,166.5 C236.1704,166.5 276.3408,166.5 276.3408,156.5 " fill="none" style="stroke:#181818;stroke-width:0.5;"/><text fill="#000000" font-family="sans-serif" font-size="14" lengthAdjust="spacing" textLength="60.3408" x="206" y="183.4951">Postgres</text></g><!--entity es_observability--><g id="elem_es_observability"><path d="M346,373 C346,363 402.2485,363 402.2485,363 C402.2485,363 458.4971,363 458.4971,373 L458.4971,398.2969 C458.4971,408.2969 402.2485,408.2969 402.2485,408.2969 C402.2485,408.2969 346,408.2969 346,398.2969 L346,373 " fill="#F1F1F1" style="stroke:#181818;stroke-width:0.5;"/><path d="M346,373 C346,383 402.2485,383 402.2485,383 C402.2485,383 458.4971,383 458.4971,373 " fill="none" style="stroke:#181818;stroke-width:0.5;"/><text fill="#000000" font-family="sans-serif" font-size="14" lengthAdjust="spacing" textLength="92.4971" x="356" y="399.9951">Elasticsearch</text></g><!--entity eexporter--><g id="elem_eexporter"><rect fill="#F1F1F1" height="36.2969" rx="2.5" ry="2.5" style="stroke:#181818;stroke-width:0.5;" width="130.332" x="422" y="267"/><text fill="#000000" font-family="sans-serif" font-size="14" lengthAdjust="spacing" textLength="110.332" x="432" y="289.9951">Elastic Exporter</text></g><!--entity es_app--><g id="elem_es_app"><path d="M311.5,148 C311.5,138 386.8071,138 386.8071,138 C386.8071,138 462.1143,138 462.1143,148 L462.1143,189.5938 C462.1143,199.5938 386.8071,199.5938 386.8071,199.5938 C386.8071,199.5938 311.5,199.5938 311.5,189.5938 L311.5,148 " fill="#F1F1F1" style="stroke:#181818;stroke-width:0.5;"/><path d="M311.5,148 C311.5,158 386.8071,158 386.8071,158 C386.8071,158 462.1143,158 462.1143,148 " fill="none" style="stroke:#181818;stroke-width:0.5;"/><text fill="#000000" font-family="sans-serif" font-size="14" lengthAdjust="spacing" textLength="130.6143" x="321.5" y="174.9951">Elasticsearch used</text><text fill="#000000" font-family="sans-serif" font-size="14" lengthAdjust="spacing" textLength="126.2734" x="321.5" y="191.292">by the application</text></g><!--entity redis--><g id="elem_redis"><path d="M498,156.5 C498,146.5 527.2056,146.5 527.2056,146.5 C527.2056,146.5 556.4111,146.5 556.4111,156.5 L556.4111,181.7969 C556.4111,191.7969 527.2056,191.7969 527.2056,191.7969 C527.2056,191.7969 498,191.7969 498,181.7969 L498,156.5 " fill="#F1F1F1" style="stroke:#181818;stroke-width:0.5;"/><path d="M498,156.5 C498,166.5 527.2056,166.5 527.2056,166.5 C527.2056,166.5 556.4111,166.5 556.4111,156.5 " fill="none" style="stroke:#181818;stroke-width:0.5;"/><text fill="#000000" font-family="sans-serif" font-size="14" lengthAdjust="spacing" textLength="38.4111" x="508" y="183.4951">Redis</text></g><!--entity kibana--><g id="elem_kibana"><rect fill="#F1F1F1" height="36.2969" rx="2.5" ry="2.5" style="stroke:#181818;stroke-width:0.5;" width="67.9883" x="284" y="267"/><text fill="#000000" font-family="sans-serif" font-size="14" lengthAdjust="spacing" textLength="47.9883" x="294" y="289.9951">Kibana</text></g><!--entity kafka--><g id="elem_kafka"><rect fill="#F1F1F1" height="36.2969" rx="2.5" ry="2.5" style="stroke:#181818;stroke-width:0.5;" width="59.375" x="591.5" y="151"/><text fill="#000000" font-family="sans-serif" font-size="14" lengthAdjust="spacing" textLength="39.375" x="601.5" y="173.9951">Kafka</text></g><!--link otel to collector--><g id="link_otel_collector"><path d="M91.14,78.39 C82.85,109.06 100.07,172.13 143,200 C160.91,211.63 318.62,194.31 335,208 C348.225,219.055 352.4925,237.95 357.7687,254.1338 C360.4069,262.2256 363.2972,269.6397 367.6855,275.057 C369.8796,277.7657 372.4482,279.9752 375.5471,281.5206 C375.9344,281.7138 370.8096,279.5462 371.2139,279.7183 " fill="none" id="otel-to-collector" style="stroke:#FF0000;stroke-width:1.0;"/><polygon fill="#FF0000" points="376.7343,282.0687,370.0206,274.8628,372.1339,280.11,366.8867,282.2234,376.7343,282.0687" style="stroke:#FF0000;stroke-width:1.0;"/></g><!--link otel to collector--><g id="link_otel_collector"><path d="M111.83,78.39 C117.85,109.06 135.07,172.13 178,200 C195.91,211.63 353.62,194.31 370,208 C373.2163,210.6875 375.9028,213.8386 378.1408,217.3016 C379.2598,219.0331 380.2667,220.8425 381.1716,222.711 C381.2847,222.9446 381.3962,223.1791 381.5061,223.4144 C381.5611,223.5321 379.1139,218.1965 379.1681,218.3146 " fill="none" id="otel-to-collector-1" style="stroke:#0000FF;stroke-width:1.0;"/><polygon fill="#0000FF" points="381.6699,223.7681,381.553,213.92,379.5851,219.2235,374.2816,217.2556,381.6699,223.7681" style="stroke:#0000FF;stroke-width:1.0;"/></g><!--link otel to collector--><g id="link_otel_collector"><path d="M132.52,78.39 C152.85,109.06 170.07,172.13 213,200 C230.91,211.63 388.62,194.31 405,208 C408.3063,210.7638 411.0527,214.0175 413.2598,217.5964 C414.3634,219.3858 415.3322,221.2566 416.1687,223.188 C416.2733,223.4294 414.0861,218.1258 414.1866,218.3691 " fill="none" id="otel-to-collector-2" style="stroke:#008000;stroke-width:1.0;"/><polygon fill="#008000" points="416.4762,223.915,416.739,214.0697,414.5682,219.2934,409.3444,217.1226,416.4762,223.915" style="stroke:#008000;stroke-width:1.0;"/></g><!--link django to db--><g id="link_django_db"><path d="M260.34,78.19 C255.31,96.74 247.3,126.32 241.85,146.42 " fill="none" id="django-db" style="stroke:#181818;stroke-width:1.0;stroke-dasharray:7.0,7.0;"/></g><!--link django to kafka--><g id="link_django_kafka"><path d="M300.01,65.94 C358.57,75.01 479.28,97.26 574,138 C582,141.44 590.19,146.17 597.44,150.86 " fill="none" id="django-kafka" style="stroke:#181818;stroke-width:1.0;stroke-dasharray:7.0,7.0;"/></g><!--link eexporter to es_observability--><g id="link_eexporter_es_observability"><path d="M451.71,303.16 C430.38,319.69 410.9863,339.4874 401.4063,357.4274 " fill="none" id="eexporter-to-es_observability" style="stroke:#FF0000;stroke-width:1.0;"/><polygon fill="#FF0000" points="398.58,362.72,406.3479,356.6652,400.9352,358.3095,399.291,352.8968,398.58,362.72" style="stroke:#FF0000;stroke-width:1.0;"/></g><!--link eexporter to es_observability--><g id="link_eexporter_es_observability"><path d="M472.19,303.16 C457.92,319.69 440.1997,340.2374 424.7197,358.1774 " fill="none" id="eexporter-to-es_observability-1" style="stroke:#008000;stroke-width:1.0;"/><polygon fill="#008000" points="420.8,362.72,429.708,358.5192,424.0665,358.9345,423.6512,353.2929,420.8,362.72" style="stroke:#008000;stroke-width:1.0;"/></g><!--link eexporter to es_observability--><g id="link_eexporter_es_observability"><path d="M492.68,303.16 C485.47,319.69 468.9963,340.9233 447.6163,358.8633 " fill="none" id="eexporter-to-es_observability-2" style="stroke:#0000FF;stroke-width:1.0;"/><polygon fill="#0000FF" points="443.02,362.72,452.4855,359.9991,446.8502,359.5061,447.3432,353.8707,443.02,362.72" style="stroke:#0000FF;stroke-width:1.0;"/></g><!--reverse link kibana to es_observability--><g id="link_kibana_es_observability"><path d="M314.501,308.6802 C321.541,325.2102 340,344.78 361.2,362.72 " fill="none" id="kibana-backto-es_observability" style="stroke:#FF0000;stroke-width:1.0;"/><polygon fill="#FF0000" points="312.15,303.16,311.9964,313.0077,314.1092,307.7602,319.3567,309.873,312.15,303.16" style="stroke:#FF0000;stroke-width:1.0;"/></g><!--reverse link kibana to es_observability--><g id="link_kibana_es_observability"><path d="M336.5238,307.7249 C350.6238,324.2549 368.13,344.78 383.42,362.72 " fill="none" id="kibana-backto-es_observability-1" style="stroke:#008000;stroke-width:1.0;"/><polygon fill="#008000" points="332.63,303.16,335.4275,312.6032,335.8749,306.9641,341.514,307.4114,332.63,303.16" style="stroke:#008000;stroke-width:1.0;"/></g><!--reverse link kibana to es_observability--><g id="link_kibana_es_observability"><path d="M357.0015,306.1538 C378.4515,322.6938 396.17,344.59 405.67,362.77 " fill="none" id="kibana-backto-es_observability-2" style="stroke:#0000FF;stroke-width:1.0;"/><polygon fill="#0000FF" points="352.25,302.49,356.9346,311.1534,356.2095,305.5432,361.8197,304.8181,352.25,302.49" style="stroke:#0000FF;stroke-width:1.0;"/></g><!--link django to es_app--><g id="link_django_es_app"><path d="M284.6,78.19 C302.92,94.26 330.68,118.6 352.67,137.89 " fill="none" id="django-es_app" style="stroke:#181818;stroke-width:1.0;stroke-dasharray:7.0,7.0;"/></g><!--link django to redis--><g id="link_django_redis"><path d="M300.24,70.96 C343.65,83.82 419.13,108.14 480,138 C485.91,140.9 492,144.37 497.75,147.92 " fill="none" id="django-redis" style="stroke:#181818;stroke-width:1.0;stroke-dasharray:7.0,7.0;"/></g><!--link kafka to collector--><g id="link_kafka_collector"><path d="M591.23,175.45 C571.36,182.59 555.24,194.84 539,200 C521.19,205.66 385.45,196.15 371,208 C357.59,218.995 352.825,237.89 355.7438,254.0888 C357.2031,262.1881 360.5834,269.6134 365.7645,275.0402 C368.3551,277.7535 371.3958,279.9672 374.8717,281.5157 C375.3062,281.7093 375.7475,281.8925 376.1956,282.0649 C376.4196,282.1511 370.9918,280.2253 371.2192,280.3061 " fill="none" id="kafka-to-collector" style="stroke:#FF0000;stroke-width:1.0;"/><polygon fill="#FF0000" points="376.8727,282.3155,369.732,275.5324,372.1615,280.641,367.0529,283.0705,376.8727,282.3155" style="stroke:#FF0000;stroke-width:1.0;"/></g><!--link kafka to collector--><g id="link_kafka_collector"><path d="M599.25,187.21 C591.68,192.26 582.86,197.18 574,200 C556.19,205.66 420.45,196.15 406,208 C402.74,210.6725 399.9909,213.8122 397.6769,217.2667 C396.5198,218.994 395.4716,220.8 394.5225,222.6656 C394.4039,222.8988 394.2868,223.1329 394.1713,223.368 C394.1135,223.4855 396.6669,218.2011 396.6099,218.319 " fill="none" id="kafka-to-collector-1" style="stroke:#008000;stroke-width:1.0;"/><polygon fill="#008000" points="393.9991,223.7212,401.5168,217.3585,396.1748,219.2194,394.3139,213.8774,393.9991,223.7212" style="stroke:#008000;stroke-width:1.0;"/></g><!--link kafka to collector--><g id="link_kafka_collector"><path d="M632.4,187.21 C626.68,192.26 617.86,197.18 609,200 C591.19,205.66 455.45,196.15 441,208 C437.6475,210.7488 434.8353,213.9912 432.4133,217.5619 C431.2023,219.3473 430.0888,221.2147 429.0541,223.1434 C428.9248,223.3845 431.5746,218.3083 431.4477,218.5513 " fill="none" id="kafka-to-collector-2" style="stroke:#0000FF;stroke-width:1.0;"/><polygon fill="#0000FF" points="428.6698,223.8695,436.3821,217.7441,430.9847,219.4377,429.2911,214.0403,428.6698,223.8695" style="stroke:#0000FF;stroke-width:1.0;"/></g><!--link es_app to collector--><g id="link_es_app_collector"><path d="M363.51,200.25 C359.77,217.07 359.835,237.91 363.705,254.5938 C365.64,262.9356 368.5263,270.2384 372.3638,275.4802 C373.3231,276.7906 374.342,277.9722 375.4202,279.009 C375.6898,279.2682 375.9631,279.5184 376.2401,279.7592 C376.3786,279.8797 376.518,279.9978 376.6584,280.1135 C376.7286,280.1714 372.1195,276.4734 372.1901,276.5301 " fill="none" id="es_app-to-collector" style="stroke:#FF0000;stroke-width:1.0;"/><polygon fill="#FF0000" points="376.8696,280.2854,372.3539,271.5327,372.9701,277.1559,367.3468,277.772,376.8696,280.2854" style="stroke:#FF0000;stroke-width:1.0;"/></g><!--link es_app to collector--><g id="link_es_app_collector"><path d="M387,200.25 C387,204.34 387,208.6675 387,213.115 C387,215.3388 387,217.5925 387,219.8616 C387,220.9962 387,222.1345 387,223.2749 C387,223.4175 387,217.56 387,217.7026 " fill="none" id="es_app-to-collector-1" style="stroke:#0000FF;stroke-width:1.0;"/><polygon fill="#0000FF" points="387,223.7026,391,214.7026,387,218.7026,383,214.7026,387,223.7026" style="stroke:#0000FF;stroke-width:1.0;"/></g><!--link es_app to collector--><g id="link_es_app_collector"><path d="M410.49,200.25 C411.425,204.455 412.1222,208.9113 412.5816,213.491 C412.8113,215.7809 412.9815,218.1016 413.0923,220.4373 C413.1477,221.6051 413.057,216.7781 413.0826,217.9514 " fill="none" id="es_app-to-collector-2" style="stroke:#008000;stroke-width:1.0;"/><polygon fill="#008000" points="413.2138,223.9499,417.0161,214.8646,413.1045,218.9511,409.018,215.0396,413.2138,223.9499" style="stroke:#008000;stroke-width:1.0;"/></g><!--link redis to collector--><g id="link_redis_collector"><path d="M497.86,175.07 C477.63,182.02 461.26,194.29 445,200 C429.4,205.48 383.47,197.13 371,208 C357.925,219.39 353.16,238.2875 355.995,254.3888 C357.4125,262.4394 360.73,269.7909 365.8588,275.1555 C368.4231,277.8377 371.4403,280.0232 374.8992,281.551 C375.3316,281.742 375.7708,281.9227 376.217,282.0928 C376.4401,282.1778 371.0051,280.2684 371.2316,280.3481 " fill="none" id="redis-to-collector" style="stroke:#FF0000;stroke-width:1.0;"/><polygon fill="#FF0000" points="376.8914,282.3399,369.7296,275.579,372.1749,280.6801,367.0739,283.1254,376.8914,282.3399" style="stroke:#FF0000;stroke-width:1.0;"/></g><!--link redis to collector--><g id="link_redis_collector"><path d="M497.98,191.4 C492.25,194.77 486.12,197.85 480,200 C464.4,205.48 418.47,197.13 406,208 C402.8212,210.77 400.1337,213.9836 397.8651,217.4927 C396.7308,219.2473 395.7012,221.0758 394.7673,222.9596 C394.6506,223.1951 397.1303,218.0216 397.0165,218.2588 " fill="none" id="redis-to-collector-1" style="stroke:#0000FF;stroke-width:1.0;"/><polygon fill="#0000FF" points="394.4216,223.6686,401.9206,217.2838,396.584,219.1604,394.7075,213.8239,394.4216,223.6686" style="stroke:#0000FF;stroke-width:1.0;"/></g><!--link redis to collector--><g id="link_redis_collector"><path d="M532.12,191.55 C527.07,194.86 521.03,197.88 515,200 C499.4,205.48 453.47,197.13 441,208 C437.7313,210.8475 434.9819,214.1642 432.6057,217.7892 C431.4176,219.6016 430.3227,221.4912 429.3029,223.4376 C429.2392,223.5593 431.9324,218.3519 431.8693,218.474 " fill="none" id="redis-to-collector-2" style="stroke:#008000;stroke-width:1.0;"/><polygon fill="#008000" points="429.1126,223.8032,436.8004,217.6472,431.4098,219.3622,429.6948,213.9716,429.1126,223.8032" style="stroke:#008000;stroke-width:1.0;"/></g><!--link db to collector--><g id="link_db_collector"><path d="M238.47,191.65 C244.73,194.91 251.94,197.89 259,200 C275.27,204.87 322.32,196.7 335,208 C347.87,219.47 352.1375,238.3675 357.5025,254.4488 C360.185,262.4894 363.1419,269.8259 367.5856,275.178 C369.8075,277.854 372.4011,280.0339 375.518,281.5576 C375.9076,281.748 370.7687,279.6163 371.1749,279.7859 " fill="none" id="db-to-collector" style="stroke:#FF0000;stroke-width:1.0;"/><polygon fill="#FF0000" points="376.7116,282.0979,369.9479,274.9388,372.0977,280.1712,366.8653,282.321,376.7116,282.0979" style="stroke:#FF0000;stroke-width:1.0;"/></g><!--link db to collector--><g id="link_db_collector"><path d="M272.89,191.65 C279.73,194.91 286.94,197.89 294,200 C310.27,204.87 357.32,196.7 370,208 C373.13,210.7888 375.7513,214.0166 377.9411,217.5362 C379.036,219.296 380.023,221.1288 380.9118,223.0162 C381.0229,223.2521 378.6485,218.0272 378.7566,218.2648 " fill="none" id="db-to-collector-1" style="stroke:#0000FF;stroke-width:1.0;"/><polygon fill="#0000FF" points="381.2406,223.7264,381.1557,213.8779,379.1706,219.175,373.8735,217.1899,381.2406,223.7264" style="stroke:#0000FF;stroke-width:1.0;"/></g><!--link db to collector--><g id="link_db_collector"><path d="M276.07,178.24 C294.91,185.28 312.38,195.02 329,200 C345.27,204.87 392.32,196.7 405,208 C408.2175,210.8675 410.8973,214.1992 413.056,217.8351 C414.1353,219.653 415.0843,221.547 415.9051,223.497 C415.9564,223.6189 413.7252,218.1919 413.7755,218.3142 " fill="none" id="db-to-collector-2" style="stroke:#008000;stroke-width:1.0;"/><polygon fill="#008000" points="416.0575,223.8633,416.334,214.0183,414.1558,219.239,408.9351,217.0609,416.0575,223.8633" style="stroke:#008000;stroke-width:1.0;"/></g><!--SRC=[XLB1Ra8X4Bo_hzZOitv1qvEUFBIflTccMNYhKddm0jZqfUc_5nQqLb5loyuoCplWjyhqwB03QRlU6Z9X4GPDu4W6D6jDJREACC7eQGWRQw1JqbbFxbD96W5ww3nyDm3BnvxC2sdg8eSRO36TloNO1j89ddv4EikjbilcfsbQ32ZG9tRhmzgHPyfMHCf_y4oZ3qfwGYStF4F-tOha0uNIAWpvHl5wuaLQhUC-rl7DmodvNXPcc7trrWLox92ed1BdSgu46cHWosLiuMfREgcwQ1LsdjfN8mO86mBiUwqa1cNDVeVOEjtrcLgLSt2fod2A4SRZXoFtTn6kzeNUKHM80PE9Kfm_J2OfwADJMUMmF5y_ovbbRyrafLjJRBJ9cSBzU7n1xEf0LhewacN-zion7pKuvsWaxLyBkGeKuHgK1SlhLlZg2D-gG-NXyd-e45O1vgiY-tyWQbpdNIOwRsUMNm00]--></g></svg>