<svg xmlns="http://www.w3.org/2000/svg" xmlns:xlink="http://www.w3.org/1999/xlink" contentStyleType="text/css" height="514px" preserveAspectRatio="none" style="width:988px;height:514px;background:#FFFFFF;" version="1.1" viewBox="0 0 988 514" width="988px" zoomAndPan="magnify"><defs/><g><!--cluster ms1--><g id="cluster_ms1"><rect fill="none" height="87" rx="2.5" ry="2.5" style="stroke:#181818;stroke-width:1.0;" width="309" x="7" y="7"/><path d="M192.7793,7 L192.7793,16.2969 L182.7793,26.2969 L7,26.2969 " fill="none" style="stroke:#181818;stroke-width:1.0;"/><text fill="#000000" font-family="sans-serif" font-size="14" font-weight="bold" lengthAdjust="spacing" textLength="175.7793" x="10" y="20.9951">Python microservice 1</text></g><!--cluster ms2--><g id="cluster_ms2"><rect fill="none" height="87" rx="2.5" ry="2.5" style="stroke:#181818;stroke-width:1.0;" width="309" x="340" y="7"/><path d="M525.7793,7 L525.7793,16.2969 L515.7793,26.2969 L340,26.2969 " fill="none" style="stroke:#181818;stroke-width:1.0;"/><text fill="#000000" font-family="sans-serif" font-size="14" font-weight="bold" lengthAdjust="spacing" textLength="175.7793" x="343" y="20.9951">Python microservice 2</text></g><!--cluster ms3--><g id="cluster_ms3"><rect fill="none" height="87" rx="2.5" ry="2.5" style="stroke:#181818;stroke-width:1.0;" width="309" x="673" y="7"/><path d="M858.7793,7 L858.7793,16.2969 L848.7793,26.2969 L673,26.2969 " fill="none" style="stroke:#181818;stroke-width:1.0;"/><text fill="#000000" font-family="sans-serif" font-size="14" font-weight="bold" lengthAdjust="spacing" textLength="175.7793" x="676" y="20.9951">Python microservice 3</text></g><!--entity otel1--><g id="elem_otel1"><rect fill="#F1F1F1" height="36.2969" rx="2.5" ry="2.5" style="stroke:#181818;stroke-width:0.5;" width="171.0127" x="23.5" y="42"/><text fill="#000000" font-family="sans-serif" font-size="14" lengthAdjust="spacing" textLength="151.0127" x="33.5" y="64.9951">OpenTelementry SDK</text></g><!--entity django1--><g id="elem_django1"><rect fill="#F1F1F1" height="36.2969" rx="2.5" ry="2.5" style="stroke:#181818;stroke-width:0.5;" width="69.5742" x="230" y="42"/><text fill="#000000" font-family="sans-serif" font-size="14" lengthAdjust="spacing" textLength="49.5742" x="240" y="64.9951">Django</text></g><!--entity otel2--><g id="elem_otel2"><rect fill="#F1F1F1" height="36.2969" rx="2.5" ry="2.5" style="stroke:#181818;stroke-width:0.5;" width="171.0127" x="461.5" y="42"/><text fill="#000000" font-family="sans-serif" font-size="14" lengthAdjust="spacing" textLength="151.0127" x="471.5" y="64.9951">OpenTelementry SDK</text></g><!--entity django2--><g id="elem_django2"><rect fill="#F1F1F1" height="36.2969" rx="2.5" ry="2.5" style="stroke:#181818;stroke-width:0.5;" width="69.5742" x="356" y="42"/><text fill="#000000" font-family="sans-serif" font-size="14" lengthAdjust="spacing" textLength="49.5742" x="366" y="64.9951">Django</text></g><!--entity otel3--><g id="elem_otel3"><rect fill="#F1F1F1" height="36.2969" rx="2.5" ry="2.5" style="stroke:#181818;stroke-width:0.5;" width="171.0127" x="794.5" y="42"/><text fill="#000000" font-family="sans-serif" font-size="14" lengthAdjust="spacing" textLength="151.0127" x="804.5" y="64.9951">OpenTelementry SDK</text></g><!--entity django3--><g id="elem_django3"><rect fill="#F1F1F1" height="36.2969" rx="2.5" ry="2.5" style="stroke:#181818;stroke-width:0.5;" width="69.5742" x="689" y="42"/><text fill="#000000" font-family="sans-serif" font-size="14" lengthAdjust="spacing" textLength="49.5742" x="699" y="64.9951">Django</text></g><!--entity db--><g id="elem_db"><path d="M571,156.5 C571,146.5 611.1704,146.5 611.1704,146.5 C611.1704,146.5 651.3408,146.5 651.3408,156.5 L651.3408,181.7969 C651.3408,191.7969 611.1704,191.7969 611.1704,191.7969 C611.1704,191.7969 571,191.7969 571,181.7969 L571,156.5 " fill="#F1F1F1" style="stroke:#181818;stroke-width:0.5;"/><path d="M571,156.5 C571,166.5 611.1704,166.5 611.1704,166.5 C611.1704,166.5 651.3408,166.5 651.3408,156.5 " fill="none" style="stroke:#181818;stroke-width:0.5;"/><text fill="#000000" font-family="sans-serif" font-size="14" lengthAdjust="spacing" textLength="60.3408" x="581" y="183.4951">Postgres</text></g><!--entity es_observability--><g id="elem_es_observability"><path d="M741,462 C741,452 797.2485,452 797.2485,452 C797.2485,452 853.4971,452 853.4971,462 L853.4971,487.2969 C853.4971,497.2969 797.2485,497.2969 797.2485,497.2969 C797.2485,497.2969 741,497.2969 741,487.2969 L741,462 " fill="#F1F1F1" style="stroke:#181818;stroke-width:0.5;"/><path d="M741,462 C741,472 797.2485,472 797.2485,472 C797.2485,472 853.4971,472 853.4971,462 " fill="none" style="stroke:#181818;stroke-width:0.5;"/><text fill="#000000" font-family="sans-serif" font-size="14" lengthAdjust="spacing" textLength="92.4971" x="751" y="488.9951">Elasticsearch</text></g><!--entity es_app--><g id="elem_es_app"><path d="M196.5,148 C196.5,138 271.8071,138 271.8071,138 C271.8071,138 347.1143,138 347.1143,148 L347.1143,189.5938 C347.1143,199.5938 271.8071,199.5938 271.8071,199.5938 C271.8071,199.5938 196.5,199.5938 196.5,189.5938 L196.5,148 " fill="#F1F1F1" style="stroke:#181818;stroke-width:0.5;"/><path d="M196.5,148 C196.5,158 271.8071,158 271.8071,158 C271.8071,158 347.1143,158 347.1143,148 " fill="none" style="stroke:#181818;stroke-width:0.5;"/><text fill="#000000" font-family="sans-serif" font-size="14" lengthAdjust="spacing" textLength="130.6143" x="206.5" y="174.9951">Elasticsearch used</text><text fill="#000000" font-family="sans-serif" font-size="14" lengthAdjust="spacing" textLength="126.2734" x="206.5" y="191.292">by the application</text></g><!--entity redis--><g id="elem_redis"><path d="M383,156.5 C383,146.5 412.2056,146.5 412.2056,146.5 C412.2056,146.5 441.4111,146.5 441.4111,156.5 L441.4111,181.7969 C441.4111,191.7969 412.2056,191.7969 412.2056,191.7969 C412.2056,191.7969 383,191.7969 383,181.7969 L383,156.5 " fill="#F1F1F1" style="stroke:#181818;stroke-width:0.5;"/><path d="M383,156.5 C383,166.5 412.2056,166.5 412.2056,166.5 C412.2056,166.5 441.4111,166.5 441.4111,156.5 " fill="none" style="stroke:#181818;stroke-width:0.5;"/><text fill="#000000" font-family="sans-serif" font-size="14" lengthAdjust="spacing" textLength="38.4111" x="393" y="183.4951">Redis</text></g><!--entity collector--><g id="elem_collector"><rect fill="#F1F1F1" height="36.2969" rx="2.5" ry="2.5" style="stroke:#181818;stroke-width:0.5;" width="202.3281" x="405" y="260"/><text fill="#000000" font-family="sans-serif" font-size="14" lengthAdjust="spacing" textLength="182.3281" x="415" y="282.9951">OpenTelementry collector</text></g><!--entity apm--><g id="elem_apm"><rect fill="#F1F1F1" height="36.2969" rx="2.5" ry="2.5" style="stroke:#181818;stroke-width:0.5;" width="100.459" x="688" y="356"/><text fill="#000000" font-family="sans-serif" font-size="14" lengthAdjust="spacing" textLength="80.459" x="698" y="378.9951">APM Server</text></g><!--entity kibana--><g id="elem_kibana"><rect fill="#F1F1F1" height="36.2969" rx="2.5" ry="2.5" style="stroke:#181818;stroke-width:0.5;" width="67.9883" x="823" y="356"/><text fill="#000000" font-family="sans-serif" font-size="14" lengthAdjust="spacing" textLength="47.9883" x="833" y="378.9951">Kibana</text></g><!--entity kafka--><g id="elem_kafka"><rect fill="#F1F1F1" height="36.2969" rx="2.5" ry="2.5" style="stroke:#181818;stroke-width:0.5;" width="59.375" x="476.5" y="151"/><text fill="#000000" font-family="sans-serif" font-size="14" lengthAdjust="spacing" textLength="39.375" x="486.5" y="173.9951">Kafka</text></g><!--link otel1 to apm--><g id="link_otel1_apm"><path d="M92.23,78.21 C87.05,106.92 107.64,164.92 144,200 C296.81,347.41 566.6922,369.2781 681.8922,372.3881 " fill="none" id="otel1-to-apm" style="stroke:#FF0000;stroke-width:1.0;"/><polygon fill="#FF0000" points="687.89,372.55,679.0012,368.3086,682.8918,372.4151,678.7853,376.3057,687.89,372.55" style="stroke:#FF0000;stroke-width:1.0;"/></g><!--link otel1 to apm--><g id="link_otel1_apm"><path d="M113.59,78.21 C122.05,106.92 142.64,164.92 179,200 C323.95,339.83 573.6466,366.5586 681.6266,371.6286 " fill="none" id="otel1-to-apm-1" style="stroke:#0000FF;stroke-width:1.0;"/><polygon fill="#0000FF" points="687.62,371.91,678.8175,367.4923,682.6255,371.6755,678.4423,375.4835,687.62,371.91" style="stroke:#0000FF;stroke-width:1.0;"/></g><!--link otel1 to apm--><g id="link_otel1_apm"><path d="M134.95,78.21 C157.05,106.92 177.64,164.92 214,200 C350.17,331.37 578.1059,362.7239 681.9859,370.2939 " fill="none" id="otel1-to-apm-2" style="stroke:#008000;stroke-width:1.0;"/><polygon fill="#008000" points="687.97,370.73,679.2845,366.0865,682.9832,370.3666,678.7031,374.0653,687.97,370.73" style="stroke:#008000;stroke-width:1.0;"/></g><!--link otel2 to apm--><g id="link_otel2_apm"><path d="M559.48,78.26 C580.81,91.08 613.63,111.01 634,138 C686.01,206.89 696.2564,308.9136 716.8264,350.4336 " fill="none" id="otel2-to-apm" style="stroke:#FF0000;stroke-width:1.0;"/><polygon fill="#FF0000" points="719.49,355.81,719.0789,345.9697,717.2703,351.3297,711.9104,349.5212,719.49,355.81" style="stroke:#FF0000;stroke-width:1.0;"/></g><!--link otel2 to apm--><g id="link_otel2_apm"><path d="M589.05,78.12 C615.57,90.93 648.55,110.91 669,138 C721.01,206.89 733.4704,308.3069 736.5904,349.8269 " fill="none" id="otel2-to-apm-1" style="stroke:#0000FF;stroke-width:1.0;"/><polygon fill="#0000FF" points="737.04,355.81,740.3544,346.5356,736.6653,350.8241,732.3768,347.135,737.04,355.81" style="stroke:#0000FF;stroke-width:1.0;"/></g><!--link otel2 to apm--><g id="link_otel2_apm"><path d="M618.86,78.12 C650.57,90.93 683.55,110.91 704,138 C756.01,206.89 770.8775,308.6183 756.5475,350.1383 " fill="none" id="otel2-to-apm-2" style="stroke:#008000;stroke-width:1.0;"/><polygon fill="#008000" points="754.59,355.81,761.3074,348.6075,756.2213,351.0836,753.7451,345.9974,754.59,355.81" style="stroke:#008000;stroke-width:1.0;"/></g><!--link otel3 to apm--><g id="link_otel3_apm"><path d="M858.16,78.02 C831.54,117.85 804.65,219.54 763,296 C750.84,318.32 734.6364,335.381 728.4364,350.271 " fill="none" id="otel3-to-apm" style="stroke:#FF0000;stroke-width:1.0;"/><polygon fill="#FF0000" points="726.13,355.81,733.2822,349.0391,728.052,351.1942,725.8969,345.9639,726.13,355.81" style="stroke:#FF0000;stroke-width:1.0;"/></g><!--link otel3 to apm--><g id="link_otel3_apm"><path d="M876.1,78.02 C866.54,117.85 839.65,219.54 798,296 C785.84,318.32 771.3169,336.4362 758.0769,351.3262 " fill="none" id="otel3-to-apm-1" style="stroke:#0000FF;stroke-width:1.0;"/><polygon fill="#0000FF" points="754.09,355.81,763.0596,351.7423,757.4124,352.0735,757.0812,346.4264,754.09,355.81" style="stroke:#0000FF;stroke-width:1.0;"/></g><!--link otel3 to apm--><g id="link_otel3_apm"><path d="M894.03,78.02 C901.54,117.85 874.65,219.54 833,296 C820.84,318.32 807.1664,337.369 786.8864,352.259 " fill="none" id="otel3-to-apm-2" style="stroke:#008000;stroke-width:1.0;"/><polygon fill="#008000" points="782.05,355.81,791.6719,353.7078,786.0803,352.8509,786.9373,347.2593,782.05,355.81" style="stroke:#008000;stroke-width:1.0;"/></g><!--link django1 to db--><g id="link_django1_db"><path d="M291.08,78.06 C305.06,86.48 322.9,96.07 340,102 C430.71,133.46 461.94,107.58 553,138 C559.77,140.26 566.73,143.23 573.36,146.41 " fill="none" id="django1-db" style="stroke:#181818;stroke-width:1.0;stroke-dasharray:7.0,7.0;"/></g><!--link django2 to db--><g id="link_django2_db"><path d="M410.03,78.28 C419.67,86.34 431.88,95.56 444,102 C489.05,125.95 505.97,118.22 553,138 C559.06,140.55 565.35,143.48 571.46,146.5 " fill="none" id="django2-db" style="stroke:#181818;stroke-width:1.0;stroke-dasharray:7.0,7.0;"/></g><!--link django3 to db--><g id="link_django3_db"><path d="M705.84,78.19 C686.25,96.74 655.02,126.32 633.79,146.42 " fill="none" id="django3-db" style="stroke:#181818;stroke-width:1.0;stroke-dasharray:7.0,7.0;"/></g><!--link django1 to kafka--><g id="link_django1_kafka"><path d="M293.16,78.2 C306.95,86.15 323.99,95.29 340,102 C390.96,123.37 408.8,114.92 459,138 C466.74,141.56 474.71,146.22 481.84,150.8 " fill="none" id="django1-kafka" style="stroke:#181818;stroke-width:1.0;stroke-dasharray:7.0,7.0;"/></g><!--link django2 to kafka--><g id="link_django2_kafka"><path d="M409.48,78.19 C430.94,98.16 466.13,130.9 487.57,150.85 " fill="none" id="django2-kafka" style="stroke:#181818;stroke-width:1.0;stroke-dasharray:7.0,7.0;"/></g><!--link django3 to kafka--><g id="link_django3_kafka"><path d="M694.92,78.12 C681.21,85.87 664.5,94.87 649,102 C607.98,120.87 594.45,117.94 554,138 C546.43,141.76 538.53,146.37 531.37,150.85 " fill="none" id="django3-kafka" style="stroke:#181818;stroke-width:1.0;stroke-dasharray:7.0,7.0;"/></g><!--link db to collector--><g id="link_db_collector"><path d="M579.27,191.65 C556.21,211.8 531.0901,236.6834 516.7701,255.2034 " fill="none" id="db-to-collector" style="stroke:#FF0000;stroke-width:1.0;"/><polygon fill="#FF0000" points="513.1,259.95,521.7696,255.2769,516.1585,255.9945,515.4408,250.3834,513.1,259.95" style="stroke:#FF0000;stroke-width:1.0;"/></g><!--link db to collector--><g id="link_db_collector"><path d="M600.85,191.65 C584.55,211.8 559.7915,237.5915 537.5415,256.1115 " fill="none" id="db-to-collector-1" style="stroke:#0000FF;stroke-width:1.0;"/><polygon fill="#0000FF" points="532.93,259.95,542.4063,257.2667,536.7729,256.7513,537.2883,251.118,532.93,259.95" style="stroke:#0000FF;stroke-width:1.0;"/></g><!--link apm to es_observability--><g id="link_apm_es_observability"><path d="M727.79,392.16 C730.64,408.69 741.0097,429.381 757.6497,447.321 " fill="none" id="apm-to-es_observability" style="stroke:#FF0000;stroke-width:1.0;"/><polygon fill="#FF0000" points="761.73,451.72,758.5423,442.4013,758.3298,448.0541,752.6769,447.8416,761.73,451.72" style="stroke:#FF0000;stroke-width:1.0;"/></g><!--link apm to es_observability--><g id="link_apm_es_observability"><path d="M748.28,392.16 C758.18,408.69 770.1281,428.632 780.8681,446.572 " fill="none" id="apm-to-es_observability-1" style="stroke:#008000;stroke-width:1.0;"/><polygon fill="#008000" points="783.95,451.72,782.7591,441.9434,781.3817,447.43,775.8951,446.0526,783.95,451.72" style="stroke:#008000;stroke-width:1.0;"/></g><!--link apm to es_observability--><g id="link_apm_es_observability"><path d="M768.76,392.16 C785.72,408.69 799.7671,427.9871 804.6071,445.9271 " fill="none" id="apm-to-es_observability-2" style="stroke:#0000FF;stroke-width:1.0;"/><polygon fill="#0000FF" points="806.17,451.72,807.6876,441.9888,804.8676,446.8926,799.9638,444.0726,806.17,451.72" style="stroke:#0000FF;stroke-width:1.0;"/></g><!--reverse link kibana to es_observability--><g id="link_kibana_es_observability"><path d="M821.7512,396.3251 C804.6112,412.8551 793.08,433.78 788.05,451.72 " fill="none" id="kibana-backto-es_observability" style="stroke:#FF0000;stroke-width:1.0;"/><polygon fill="#FF0000" points="826.07,392.16,816.8151,395.5284,822.471,395.6309,822.3685,401.2868,826.07,392.16" style="stroke:#FF0000;stroke-width:1.0;"/></g><!--reverse link kibana to es_observability--><g id="link_kibana_es_observability"><path d="M843.4285,397.2841 C833.3585,413.8141 821.2,433.78 810.27,451.72 " fill="none" id="kibana-backto-es_observability-1" style="stroke:#008000;stroke-width:1.0;"/><polygon fill="#008000" points="846.55,392.16,838.4516,397.765,843.9487,396.43,845.2837,401.9271,846.55,392.16" style="stroke:#008000;stroke-width:1.0;"/></g><!--reverse link kibana to es_observability--><g id="link_kibana_es_observability"><path d="M865.9551,398.0629 C862.9451,414.5929 849.32,433.78 832.49,451.72 " fill="none" id="kibana-backto-es_observability-2" style="stroke:#0000FF;stroke-width:1.0;"/><polygon fill="#0000FF" points="867.03,392.16,861.4824,400.2978,866.1343,397.0791,869.353,401.731,867.03,392.16" style="stroke:#0000FF;stroke-width:1.0;"/></g><!--link django1 to es_app--><g id="link_django1_es_app"><path d="M266.12,78.19 C267.18,94.26 268.77,118.6 270.03,137.89 " fill="none" id="django1-es_app" style="stroke:#181818;stroke-width:1.0;stroke-dasharray:7.0,7.0;"/></g><!--link django2 to es_app--><g id="link_django2_es_app"><path d="M371.88,78.19 C354.01,94.26 326.94,118.6 305.48,137.89 " fill="none" id="django2-es_app" style="stroke:#181818;stroke-width:1.0;stroke-dasharray:7.0,7.0;"/></g><!--link django3 to es_app--><g id="link_django3_es_app"><path d="M698.36,78.14 C684.36,86.69 666.36,96.37 649,102 C528.38,141.09 489.8,110.61 366,138 C359.98,139.33 353.79,140.88 347.61,142.56 " fill="none" id="django3-es_app" style="stroke:#181818;stroke-width:1.0;stroke-dasharray:7.0,7.0;"/></g><!--link django1 to redis--><g id="link_django1_redis"><path d="M288.62,78.19 C314.26,96.86 355.25,126.69 382.88,146.8 " fill="none" id="django1-redis" style="stroke:#181818;stroke-width:1.0;stroke-dasharray:7.0,7.0;"/></g><!--link django2 to redis--><g id="link_django2_redis"><path d="M394.37,78.19 C398.01,96.74 403.82,126.32 407.76,146.42 " fill="none" id="django2-redis" style="stroke:#181818;stroke-width:1.0;stroke-dasharray:7.0,7.0;"/></g><!--link django3 to redis--><g id="link_django3_redis"><path d="M697.53,78.13 C683.58,86.46 665.91,95.95 649,102 C568.08,130.97 538.89,106.31 459,138 C452.97,140.39 446.88,143.59 441.17,147 " fill="none" id="django3-redis" style="stroke:#181818;stroke-width:1.0;stroke-dasharray:7.0,7.0;"/></g><!--link kafka to collector--><g id="link_kafka_collector"><path d="M486.11,187.19 C477.62,207.16 475.2782,234.3801 483.7782,254.3301 " fill="none" id="kafka-to-collector" style="stroke:#FF0000;stroke-width:1.0;"/><polygon fill="#FF0000" points="486.13,259.85,486.2822,250.0023,484.1701,255.2501,478.9224,253.1381,486.13,259.85" style="stroke:#FF0000;stroke-width:1.0;"/></g><!--link kafka to collector--><g id="link_kafka_collector"><path d="M506,187.19 C506,207.16 506,233.9 506,253.85 " fill="none" id="kafka-to-collector-1" style="stroke:#008000;stroke-width:1.0;"/><polygon fill="#008000" points="506,259.85,510,250.85,506,254.85,502,250.85,506,259.85" style="stroke:#008000;stroke-width:1.0;"/></g><!--link kafka to collector--><g id="link_kafka_collector"><path d="M525.89,187.19 C534.38,207.16 536.7218,234.3801 528.2218,254.3301 " fill="none" id="kafka-to-collector-2" style="stroke:#0000FF;stroke-width:1.0;"/><polygon fill="#0000FF" points="525.87,259.85,533.0776,253.1381,527.8299,255.2501,525.7178,250.0023,525.87,259.85" style="stroke:#0000FF;stroke-width:1.0;"/></g><!--link es_app to collector--><g id="link_es_app_collector"><path d="M326.21,200.09 C366.49,219.44 415.0432,241.5583 453.5332,257.6283 " fill="none" id="es_app-to-collector" style="stroke:#FF0000;stroke-width:1.0;"/><polygon fill="#FF0000" points="459.07,259.94,452.3059,252.7813,454.456,258.0136,449.2237,260.1637,459.07,259.94" style="stroke:#FF0000;stroke-width:1.0;"/></g><!--link es_app to collector--><g id="link_es_app_collector"><path d="M347.8,199.1 C392.72,218.59 441.3708,240.8722 473.5308,257.2122 " fill="none" id="es_app-to-collector-1" style="stroke:#0000FF;stroke-width:1.0;"/><polygon fill="#0000FF" points="478.88,259.93,472.6682,252.2872,474.4224,257.6651,469.0444,259.4194,478.88,259.93" style="stroke:#0000FF;stroke-width:1.0;"/></g><!--link redis to collector--><g id="link_redis_collector"><path d="M420.54,191.65 C434.96,211.8 456.8555,237.3665 476.9755,255.8865 " fill="none" id="redis-to-collector" style="stroke:#FF0000;stroke-width:1.0;"/><polygon fill="#FF0000" points="481.39,259.95,477.4772,250.9118,477.7112,256.5638,472.0592,256.7978,481.39,259.95" style="stroke:#FF0000;stroke-width:1.0;"/></g><!--link redis to collector--><g id="link_redis_collector"><path d="M441.04,190.63 C462.42,210.79 485.5332,236.1069 497.9232,254.9469 " fill="none" id="redis-to-collector-1" style="stroke:#0000FF;stroke-width:1.0;"/><polygon fill="#0000FF" points="501.22,259.96,499.6168,250.2425,498.4727,255.7824,492.9327,254.6383,501.22,259.96" style="stroke:#0000FF;stroke-width:1.0;"/></g><!--link collector to apm--><g id="link_collector_apm"><path d="M527.25,296.02 C564.87,314.49 631.5825,341.6689 681.9525,358.2989 " fill="none" id="collector-to-apm" style="stroke:#FF0000;stroke-width:1.0;"/><polygon fill="#FF0000" points="687.65,360.18,680.3578,353.5601,682.9021,358.6124,677.8497,361.1567,687.65,360.18" style="stroke:#FF0000;stroke-width:1.0;"/></g><!--link collector to apm--><g id="link_collector_apm"><path d="M548.01,296.02 C589.93,313.01 648.3993,336.6965 690.3493,353.6965 " fill="none" id="collector-to-apm-1" style="stroke:#008000;stroke-width:1.0;"/><polygon fill="#008000" points="695.91,355.95,689.0712,348.8626,691.276,354.0721,686.0666,356.277,695.91,355.95" style="stroke:#008000;stroke-width:1.0;"/></g><!--link collector to apm--><g id="link_collector_apm"><path d="M568.78,296.02 C618,313.01 676.6534,336.3072 711.3034,353.3072 " fill="none" id="collector-to-apm-2" style="stroke:#0000FF;stroke-width:1.0;"/><polygon fill="#0000FF" points="716.69,355.95,710.3719,348.3947,712.2011,353.7477,706.8482,355.5769,716.69,355.95" style="stroke:#0000FF;stroke-width:1.0;"/></g><!--SRC=[XLFBJiCm4BpdArPmRgN6LuI412U4G9HRGSX9bjRKiIFR84M8VyVscZP9tVRcdTcPVTYsMw4wRdWBjMuxhL2vfUibWi7QSRMMM1GVdaQuUEhTHYjeHMsqHVCjQeJ51N0BhLt0Jm6mUknGlQ34rjkO7fQtzs-1rmxb8l2tdzvIHwo9nqNnUzA_JFxbMVyowr-UyMV9dvtrPrb_5lmRxdZ5RIYXhLiRjD6rgRpfYBwJt3fHM-IctiGSjE-w2itmIaZXUb9C-wYrbFuwj8cLTv5Fl7bwWAMN8r6yQulLlQYuuZ7UngE7-CSs8U5qj2VuijYygge7jq7lrabHSoUq-c_MGzEXdh4HDB099wBZZSDiTXrQWalFHAWyXDWOcYeh-OLJwGvZ4smgzbU1QghUWsmA5kbHmdmURY-59OKfOYaQviQbZj9fpGF5_zwhM7DtXJJq8KhZXDO2SV1AekeuIzCSvycT7WTSpMP72fnCe1edKwZCO4_qW8Px6Y5iW0nbyLqDLKE0xO62xY6pu2oH9iXHr7bwxnc_F4Cg-WKPKPOWpHuOVOOCJ4rd238g_W00]--></g></svg>