<svg xmlns="http://www.w3.org/2000/svg" xmlns:xlink="http://www.w3.org/1999/xlink" contentStyleType="text/css" height="514px" preserveAspectRatio="none" style="width:988px;height:514px;background:#FFFFFF;" version="1.1" viewBox="0 0 988 514" width="988px" zoomAndPan="magnify"><defs/><g><!--cluster ms1--><g id="cluster_ms1"><rect fill="none" height="87" rx="2.5" ry="2.5" style="stroke:#181818;stroke-width:1.0;" width="309" x="7" y="7"/><path d="M192.7793,7 L192.7793,16.2969 L182.7793,26.2969 L7,26.2969 " fill="none" style="stroke:#181818;stroke-width:1.0;"/><text fill="#000000" font-family="sans-serif" font-size="14" font-weight="bold" lengthAdjust="spacing" textLength="175.7793" x="10" y="20.9951">Python microservice 1</text></g><!--cluster ms2--><g id="cluster_ms2"><rect fill="none" height="87" rx="2.5" ry="2.5" style="stroke:#181818;stroke-width:1.0;" width="309" x="340" y="7"/><path d="M525.7793,7 L525.7793,16.2969 L515.7793,26.2969 L340,26.2969 " fill="none" style="stroke:#181818;stroke-width:1.0;"/><text fill="#000000" font-family="sans-serif" font-size="14" font-weight="bold" lengthAdjust="spacing" textLength="175.7793" x="343" y="20.9951">Python microservice 2</text></g><!--cluster ms3--><g id="cluster_ms3"><rect fill="none" height="87" rx="2.5" ry="2.5" style="stroke:#181818;stroke-width:1.0;" width="309" x="673" y="7"/><path d="M858.7793,7 L858.7793,16.2969 L848.7793,26.2969 L673,26.2969 " fill="none" style="stroke:#181818;stroke-width:1.0;"/><text fill="#000000" font-family="sans-serif" font-size="14" font-weight="bold" lengthAdjust="spacing" textLength="175.7793" x="676" y="20.9951">Python microservice 3</text></g><!--entity otel1--><g id="elem_otel1"><rect fill="#F1F1F1" height="36.2969" rx="2.5" ry="2.5" style="stroke:#181818;stroke-width:0.5;" width="171.0127" x="23.5" y="42"/><text fill="#000000" font-family="sans-serif" font-size="14" lengthAdjust="spacing" textLength="151.0127" x="33.5" y="64.9951">OpenTelementry SDK</text></g><!--entity django1--><g id="elem_django1"><rect fill="#F1F1F1" height="36.2969" rx="2.5" ry="2.5" style="stroke:#181818;stroke-width:0.5;" width="69.5742" x="230" y="42"/><text fill="#000000" font-family="sans-serif" font-size="14" lengthAdjust="spacing" textLength="49.5742" x="240" y="64.9951">Django</text></g><!--entity otel2--><g id="elem_otel2"><rect fill="#F1F1F1" height="36.2969" rx="2.5" ry="2.5" style="stroke:#181818;stroke-width:0.5;" width="171.0127" x="461.5" y="42"/><text fill="#000000" font-family="sans-serif" font-size="14" lengthAdjust="spacing" textLength="151.0127" x="471.5" y="64.9951">OpenTelementry SDK</text></g><!--entity django2--><g id="elem_django2"><rect fill="#F1F1F1" height="36.2969" rx="2.5" ry="2.5" style="stroke:#181818;stroke-width:0.5;" width="69.5742" x="356" y="42"/><text fill="#000000" font-family="sans-serif" font-size="14" lengthAdjust="spacing" textLength="49.5742" x="366" y="64.9951">Django</text></g><!--entity otel3--><g id="elem_otel3"><rect fill="#F1F1F1" height="36.2969" rx="2.5" ry="2.5" style="stroke:#181818;stroke-width:0.5;" width="171.0127" x="794.5" y="42"/><text fill="#000000" font-family="sans-serif" font-size="14" lengthAdjust="spacing" textLength="151.0127" x="804.5" y="64.9951">OpenTelementry SDK</text></g><!--entity django3--><g id="elem_django3"><rect fill="#F1F1F1" height="36.2969" rx="2.5" ry="2.5" style="stroke:#181818;stroke-width:0.5;" width="69.5742" x="689" y="42"/><text fill="#000000" font-family="sans-serif" font-size="14" lengthAdjust="spacing" textLength="49.5742" x="699" y="64.9951">Django</text></g><!--entity db--><g id="elem_db"><path d="M384,156.5 C384,146.5 424.1704,146.5 424.1704,146.5 C424.1704,146.5 464.3408,146.5 464.3408,156.5 L464.3408,181.7969 C464.3408,191.7969 424.1704,191.7969 424.1704,191.7969 C424.1704,191.7969 384,191.7969 384,181.7969 L384,156.5 " fill="#F1F1F1" style="stroke:#181818;stroke-width:0.5;"/><path d="M384,156.5 C384,166.5 424.1704,166.5 424.1704,166.5 C424.1704,166.5 464.3408,166.5 464.3408,156.5 " fill="none" style="stroke:#181818;stroke-width:0.5;"/><text fill="#000000" font-family="sans-serif" font-size="14" lengthAdjust="spacing" textLength="60.3408" x="394" y="183.4951">Postgres</text></g><!--entity es_observability--><g id="elem_es_observability"><path d="M659,462 C659,452 715.2485,452 715.2485,452 C715.2485,452 771.4971,452 771.4971,462 L771.4971,487.2969 C771.4971,497.2969 715.2485,497.2969 715.2485,497.2969 C715.2485,497.2969 659,497.2969 659,487.2969 L659,462 " fill="#F1F1F1" style="stroke:#181818;stroke-width:0.5;"/><path d="M659,462 C659,472 715.2485,472 715.2485,472 C715.2485,472 771.4971,472 771.4971,462 " fill="none" style="stroke:#181818;stroke-width:0.5;"/><text fill="#000000" font-family="sans-serif" font-size="14" lengthAdjust="spacing" textLength="92.4971" x="669" y="488.9951">Elasticsearch</text></g><!--entity es_app--><g id="elem_es_app"><path d="M499.5,148 C499.5,138 574.8071,138 574.8071,138 C574.8071,138 650.1143,138 650.1143,148 L650.1143,189.5938 C650.1143,199.5938 574.8071,199.5938 574.8071,199.5938 C574.8071,199.5938 499.5,199.5938 499.5,189.5938 L499.5,148 " fill="#F1F1F1" style="stroke:#181818;stroke-width:0.5;"/><path d="M499.5,148 C499.5,158 574.8071,158 574.8071,158 C574.8071,158 650.1143,158 650.1143,148 " fill="none" style="stroke:#181818;stroke-width:0.5;"/><text fill="#000000" font-family="sans-serif" font-size="14" lengthAdjust="spacing" textLength="130.6143" x="509.5" y="174.9951">Elasticsearch used</text><text fill="#000000" font-family="sans-serif" font-size="14" lengthAdjust="spacing" textLength="126.2734" x="509.5" y="191.292">by the application</text></g><!--entity redis--><g id="elem_redis"><path d="M291,156.5 C291,146.5 320.2056,146.5 320.2056,146.5 C320.2056,146.5 349.4111,146.5 349.4111,156.5 L349.4111,181.7969 C349.4111,191.7969 320.2056,191.7969 320.2056,191.7969 C320.2056,191.7969 291,191.7969 291,181.7969 L291,156.5 " fill="#F1F1F1" style="stroke:#181818;stroke-width:0.5;"/><path d="M291,156.5 C291,166.5 320.2056,166.5 320.2056,166.5 C320.2056,166.5 349.4111,166.5 349.4111,156.5 " fill="none" style="stroke:#181818;stroke-width:0.5;"/><text fill="#000000" font-family="sans-serif" font-size="14" lengthAdjust="spacing" textLength="38.4111" x="301" y="183.4951">Redis</text></g><!--entity collector--><g id="elem_collector"><rect fill="#F1F1F1" height="36.2969" rx="2.5" ry="2.5" style="stroke:#181818;stroke-width:0.5;" width="202.3281" x="555" y="260"/><text fill="#000000" font-family="sans-serif" font-size="14" lengthAdjust="spacing" textLength="182.3281" x="565" y="282.9951">OpenTelementry collector</text></g><!--entity apm--><g id="elem_apm"><rect fill="#F1F1F1" height="36.2969" rx="2.5" ry="2.5" style="stroke:#181818;stroke-width:0.5;" width="100.459" x="606" y="356"/><text fill="#000000" font-family="sans-serif" font-size="14" lengthAdjust="spacing" textLength="80.459" x="616" y="378.9951">APM Server</text></g><!--entity kibana--><g id="elem_kibana"><rect fill="#F1F1F1" height="36.2969" rx="2.5" ry="2.5" style="stroke:#181818;stroke-width:0.5;" width="67.9883" x="741" y="356"/><text fill="#000000" font-family="sans-serif" font-size="14" lengthAdjust="spacing" textLength="47.9883" x="751" y="378.9951">Kibana</text></g><!--entity kafka--><g id="elem_kafka"><rect fill="#F1F1F1" height="36.2969" rx="2.5" ry="2.5" style="stroke:#181818;stroke-width:0.5;" width="59.375" x="196.5" y="151"/><text fill="#000000" font-family="sans-serif" font-size="14" lengthAdjust="spacing" textLength="39.375" x="206.5" y="173.9951">Kafka</text></g><!--link otel1 to collector--><g id="link_otel1_collector"><path d="M91.49,78.38 C84.28,108.44 102.8,169.83 144,200 C205.96,245.38 417.3701,264.8926 548.9301,272.5226 " fill="none" id="otel1-to-collector" style="stroke:#FF0000;stroke-width:1.0;"/><polygon fill="#FF0000" points="554.92,272.87,546.1667,268.3556,549.9284,272.5805,545.7035,276.3422,554.92,272.87" style="stroke:#FF0000;stroke-width:1.0;"/></g><!--link otel1 to collector--><g id="link_otel1_collector"><path d="M112.41,78.38 C119.28,108.44 137.8,169.83 179,200 C237.28,242.69 427.1048,262.3681 548.9748,270.9581 " fill="none" id="otel1-to-collector-1" style="stroke:#0000FF;stroke-width:1.0;"/><polygon fill="#0000FF" points="554.96,271.38,546.2635,266.7571,549.9724,271.0284,545.701,274.7373,554.96,271.38" style="stroke:#0000FF;stroke-width:1.0;"/></g><!--link otel1 to collector--><g id="link_otel1_collector"><path d="M133.32,78.38 C154.28,108.44 172.8,169.83 214,200 C268.22,239.72 435.4911,259.3777 548.9211,268.9077 " fill="none" id="otel1-to-collector-2" style="stroke:#008000;stroke-width:1.0;"/><polygon fill="#008000" points="554.9,269.41,546.2665,264.6705,549.9176,268.9914,545.5967,272.6425,554.9,269.41" style="stroke:#008000;stroke-width:1.0;"/></g><!--link otel2 to collector--><g id="link_otel2_collector"><path d="M564.6,78.12 C586.7,90.36 617.48,109.73 633,138 C654.56,177.28 638.0938,226.4097 640.8438,253.9497 " fill="none" id="otel2-to-collector" style="stroke:#FF0000;stroke-width:1.0;"/><polygon fill="#FF0000" points="641.44,259.92,644.526,250.5671,640.9432,254.9447,636.5655,251.362,641.44,259.92" style="stroke:#FF0000;stroke-width:1.0;"/></g><!--link otel2 to collector--><g id="link_otel2_collector"><path d="M595.07,78.12 C621.7,90.36 652.48,109.73 668,138 C689.56,177.28 675.8204,226.7709 665.3604,254.3109 " fill="none" id="otel2-to-collector-1" style="stroke:#0000FF;stroke-width:1.0;"/><polygon fill="#0000FF" points="663.23,259.92,670.1649,252.9267,665.0053,255.2458,662.6862,250.0862,663.23,259.92" style="stroke:#0000FF;stroke-width:1.0;"/></g><!--link otel2 to collector--><g id="link_otel2_collector"><path d="M625.54,78.12 C656.7,90.36 687.48,109.73 703,138 C724.56,177.28 712.6009,227.8297 688.9309,255.3697 " fill="none" id="otel2-to-collector-2" style="stroke:#008000;stroke-width:1.0;"/><polygon fill="#008000" points="685.02,259.92,693.9198,255.7018,688.2791,256.1281,687.8528,250.4873,685.02,259.92" style="stroke:#008000;stroke-width:1.0;"/></g><!--link otel3 to collector--><g id="link_otel3_collector"><path d="M847.22,78.13 C790.33,118.54 689.0068,214.4567 662.0768,254.8767 " fill="none" id="otel3-to-collector" style="stroke:#FF0000;stroke-width:1.0;"/><polygon fill="#FF0000" points="658.75,259.87,667.069,254.598,661.5223,255.709,660.4113,250.1623,658.75,259.87" style="stroke:#FF0000;stroke-width:1.0;"/></g><!--link otel3 to collector--><g id="link_otel3_collector"><path d="M862.05,78.31 C820,118.86 719.8689,215.415 678.0489,255.745 " fill="none" id="otel3-to-collector-1" style="stroke:#0000FF;stroke-width:1.0;"/><polygon fill="#0000FF" points="673.73,259.91,682.985,256.5417,677.3291,256.4392,677.4317,250.7832,673.73,259.91" style="stroke:#0000FF;stroke-width:1.0;"/></g><!--link otel3 to collector--><g id="link_otel3_collector"><path d="M877.13,78.31 C850,118.86 750.4119,216.1059 693.6219,256.4359 " fill="none" id="otel3-to-collector-2" style="stroke:#008000;stroke-width:1.0;"/><polygon fill="#008000" points="688.73,259.91,698.3839,257.9602,692.8066,257.015,693.7519,251.4376,688.73,259.91" style="stroke:#008000;stroke-width:1.0;"/></g><!--link django1 to db--><g id="link_django1_db"><path d="M290.55,78.19 C318.11,96.74 362.06,126.32 391.93,146.42 " fill="none" id="django1-db" style="stroke:#181818;stroke-width:1.0;stroke-dasharray:7.0,7.0;"/></g><!--link django2 to db--><g id="link_django2_db"><path d="M396.3,78.19 C402.02,96.74 411.14,126.32 417.34,146.42 " fill="none" id="django2-db" style="stroke:#181818;stroke-width:1.0;stroke-dasharray:7.0,7.0;"/></g><!--link django3 to db--><g id="link_django3_db"><path d="M697.12,78.16 C683.21,86.39 665.69,95.79 649,102 C577.84,128.48 553.46,112.33 482,138 C475.49,140.34 468.79,143.26 462.36,146.37 " fill="none" id="django3-db" style="stroke:#181818;stroke-width:1.0;stroke-dasharray:7.0,7.0;"/></g><!--link django1 to kafka--><g id="link_django1_kafka"><path d="M258.73,78.19 C251.46,98.16 239.52,130.9 232.25,150.85 " fill="none" id="django1-kafka" style="stroke:#181818;stroke-width:1.0;stroke-dasharray:7.0,7.0;"/></g><!--link django2 to kafka--><g id="link_django2_kafka"><path d="M364.49,78.19 C333.7,98.16 283.21,130.9 252.44,150.85 " fill="none" id="django2-kafka" style="stroke:#181818;stroke-width:1.0;stroke-dasharray:7.0,7.0;"/></g><!--link django3 to kafka--><g id="link_django3_kafka"><path d="M698.77,78.15 C684.74,86.81 666.59,96.6 649,102 C488.95,151.16 432.55,84.2 274,138 C265.25,140.97 256.46,145.8 248.83,150.73 " fill="none" id="django3-kafka" style="stroke:#181818;stroke-width:1.0;stroke-dasharray:7.0,7.0;"/></g><!--link db to collector--><g id="link_db_collector"><path d="M448.19,191.62 C453.71,194.49 459.48,197.35 465,200 C510.28,221.7 557.5376,242.6064 596.5676,257.7764 " fill="none" id="db-to-collector" style="stroke:#FF0000;stroke-width:1.0;"/><polygon fill="#FF0000" points="602.16,259.95,595.2204,252.9613,597.4996,258.1386,592.3223,260.4178,602.16,259.95" style="stroke:#FF0000;stroke-width:1.0;"/></g><!--link db to collector--><g id="link_db_collector"><path d="M464.03,182.59 C476.02,188.08 488.55,194.51 500,200 C545.28,221.7 592.7178,242.19 624.4178,257.36 " fill="none" id="db-to-collector-1" style="stroke:#0000FF;stroke-width:1.0;"/><polygon fill="#0000FF" points="629.83,259.95,623.4384,252.4569,625.3198,257.7917,619.985,259.6731,629.83,259.95" style="stroke:#0000FF;stroke-width:1.0;"/></g><!--link apm to es_observability--><g id="link_apm_es_observability"><path d="M645.79,392.16 C648.64,408.69 659.0097,429.381 675.6497,447.321 " fill="none" id="apm-to-es_observability" style="stroke:#FF0000;stroke-width:1.0;"/><polygon fill="#FF0000" points="679.73,451.72,676.5423,442.4013,676.3298,448.0541,670.6769,447.8416,679.73,451.72" style="stroke:#FF0000;stroke-width:1.0;"/></g><!--link apm to es_observability--><g id="link_apm_es_observability"><path d="M666.28,392.16 C676.18,408.69 688.1281,428.632 698.8681,446.572 " fill="none" id="apm-to-es_observability-1" style="stroke:#008000;stroke-width:1.0;"/><polygon fill="#008000" points="701.95,451.72,700.7591,441.9434,699.3817,447.43,693.8951,446.0526,701.95,451.72" style="stroke:#008000;stroke-width:1.0;"/></g><!--link apm to es_observability--><g id="link_apm_es_observability"><path d="M686.76,392.16 C703.72,408.69 717.7671,427.9871 722.6071,445.9271 " fill="none" id="apm-to-es_observability-2" style="stroke:#0000FF;stroke-width:1.0;"/><polygon fill="#0000FF" points="724.17,451.72,725.6876,441.9888,722.8676,446.8926,717.9638,444.0726,724.17,451.72" style="stroke:#0000FF;stroke-width:1.0;"/></g><!--reverse link kibana to es_observability--><g id="link_kibana_es_observability"><path d="M739.7512,396.3251 C722.6112,412.8551 711.08,433.78 706.05,451.72 " fill="none" id="kibana-backto-es_observability" style="stroke:#FF0000;stroke-width:1.0;"/><polygon fill="#FF0000" points="744.07,392.16,734.8151,395.5284,740.471,395.6309,740.3685,401.2868,744.07,392.16" style="stroke:#FF0000;stroke-width:1.0;"/></g><!--reverse link kibana to es_observability--><g id="link_kibana_es_observability"><path d="M761.4285,397.2841 C751.3585,413.8141 739.2,433.78 728.27,451.72 " fill="none" id="kibana-backto-es_observability-1" style="stroke:#008000;stroke-width:1.0;"/><polygon fill="#008000" points="764.55,392.16,756.4516,397.765,761.9487,396.43,763.2837,401.9271,764.55,392.16" style="stroke:#008000;stroke-width:1.0;"/></g><!--reverse link kibana to es_observability--><g id="link_kibana_es_observability"><path d="M783.9551,398.0629 C780.9451,414.5929 767.32,433.78 750.49,451.72 " fill="none" id="kibana-backto-es_observability-2" style="stroke:#0000FF;stroke-width:1.0;"/><polygon fill="#0000FF" points="785.03,392.16,779.4824,400.2978,784.1343,397.0791,787.353,401.731,785.03,392.16" style="stroke:#0000FF;stroke-width:1.0;"/></g><!--link django1 to es_app--><g id="link_django1_es_app"><path d="M292.33,78.11 C306.2,86.23 323.56,95.54 340,102 C400.6,125.8 419.43,120 482,138 C487.71,139.64 493.59,141.4 499.5,143.2 " fill="none" id="django1-es_app" style="stroke:#181818;stroke-width:1.0;stroke-dasharray:7.0,7.0;"/></g><!--link django2 to es_app--><g id="link_django2_es_app"><path d="M411.22,78.12 C420.84,85.87 432.68,94.86 444,102 C464.57,114.97 488.03,127.45 509.35,138 " fill="none" id="django2-es_app" style="stroke:#181818;stroke-width:1.0;stroke-dasharray:7.0,7.0;"/></g><!--link django3 to es_app--><g id="link_django3_es_app"><path d="M700.06,78.19 C677.68,94.26 643.79,118.6 616.93,137.89 " fill="none" id="django3-es_app" style="stroke:#181818;stroke-width:1.0;stroke-dasharray:7.0,7.0;"/></g><!--link django1 to redis--><g id="link_django1_redis"><path d="M273.84,78.19 C283.37,96.74 298.57,126.32 308.91,146.42 " fill="none" id="django1-redis" style="stroke:#181818;stroke-width:1.0;stroke-dasharray:7.0,7.0;"/></g><!--link django2 to redis--><g id="link_django2_redis"><path d="M379.59,78.19 C367.28,96.74 347.66,126.32 334.32,146.42 " fill="none" id="django2-redis" style="stroke:#181818;stroke-width:1.0;stroke-dasharray:7.0,7.0;"/></g><!--link django3 to redis--><g id="link_django3_redis"><path d="M698.36,78.14 C684.35,86.68 666.36,96.37 649,102 C528.81,140.98 485.8,94.97 367,138 C360.9,140.21 354.78,143.32 349.06,146.7 " fill="none" id="django3-redis" style="stroke:#181818;stroke-width:1.0;stroke-dasharray:7.0,7.0;"/></g><!--link kafka to collector--><g id="link_kafka_collector"><path d="M216.14,187.05 C222.04,191.84 230.6,196.66 239,200 C340.99,240.59 461.1732,260.0302 548.8032,269.2802 " fill="none" id="kafka-to-collector" style="stroke:#FF0000;stroke-width:1.0;"/><polygon fill="#FF0000" points="554.77,269.91,546.2396,264.9873,549.7976,269.3851,545.3998,272.9431,554.77,269.91" style="stroke:#FF0000;stroke-width:1.0;"/></g><!--link kafka to collector--><g id="link_kafka_collector"><path d="M249.52,187.05 C257.04,191.84 265.6,196.66 274,200 C365.3,236.34 470.0218,255.4429 548.6918,265.8529 " fill="none" id="kafka-to-collector-1" style="stroke:#008000;stroke-width:1.0;"/><polygon fill="#008000" points="554.64,266.64,546.2425,261.4939,549.6832,265.9841,545.193,269.4248,554.64,266.64" style="stroke:#008000;stroke-width:1.0;"/></g><!--link kafka to collector--><g id="link_kafka_collector"><path d="M255.71,174.97 C276.08,181.69 292.84,193.57 309,200 C388.99,231.83 477.9146,250.097 548.7946,261.377 " fill="none" id="kafka-to-collector-2" style="stroke:#0000FF;stroke-width:1.0;"/><polygon fill="#0000FF" points="554.72,262.32,546.4605,256.9552,549.7821,261.5342,545.2032,264.8558,554.72,262.32" style="stroke:#0000FF;stroke-width:1.0;"/></g><!--link es_app to collector--><g id="link_es_app_collector"><path d="M586.18,200.09 C598.75,219.38 613.656,239.4001 629.146,255.4701 " fill="none" id="es_app-to-collector" style="stroke:#FF0000;stroke-width:1.0;"/><polygon fill="#FF0000" points="633.31,259.79,629.944,250.5342,629.84,256.1901,624.1841,256.0862,633.31,259.79" style="stroke:#FF0000;stroke-width:1.0;"/></g><!--link es_app to collector--><g id="link_es_app_collector"><path d="M610.06,200.09 C626.8,219.38 641.7036,238.4381 650.3636,254.5081 " fill="none" id="es_app-to-collector-1" style="stroke:#0000FF;stroke-width:1.0;"/><polygon fill="#0000FF" points="653.21,259.79,652.4617,249.9696,650.838,255.3884,645.4192,253.7648,653.21,259.79" style="stroke:#0000FF;stroke-width:1.0;"/></g><!--link redis to collector--><g id="link_redis_collector"><path d="M334.33,191.72 C339.28,194.77 344.68,197.66 350,200 C415.24,228.68 487.7099,247.5463 548.9899,259.9863 " fill="none" id="redis-to-collector" style="stroke:#FF0000;stroke-width:1.0;"/><polygon fill="#FF0000" points="554.87,261.18,546.8457,255.4695,549.9699,260.1853,545.2541,263.3095,554.87,261.18" style="stroke:#FF0000;stroke-width:1.0;"/></g><!--link redis to collector--><g id="link_redis_collector"><path d="M349.18,180.39 C360.8,186.8 373.13,194.78 385,200 C448.1,227.74 517.6172,246.0993 573.0572,258.6093 " fill="none" id="redis-to-collector-1" style="stroke:#0000FF;stroke-width:1.0;"/><polygon fill="#0000FF" points="578.91,259.93,571.0112,254.0471,574.0326,258.8294,569.2503,261.8509,578.91,259.93" style="stroke:#0000FF;stroke-width:1.0;"/></g><!--link collector to apm--><g id="link_collector_apm"><path d="M635.14,296.24 C627.94,313.2 625.5896,333.4338 632.8296,350.3538 " fill="none" id="collector-to-apm" style="stroke:#FF0000;stroke-width:1.0;"/><polygon fill="#FF0000" points="635.19,355.87,635.3269,346.0221,633.223,351.2732,627.972,349.1693,635.19,355.87" style="stroke:#FF0000;stroke-width:1.0;"/></g><!--link collector to apm--><g id="link_collector_apm"><path d="M656,296.24 C656,313.2 656,332.95 656,349.87 " fill="none" id="collector-to-apm-1" style="stroke:#008000;stroke-width:1.0;"/><polygon fill="#008000" points="656,355.87,660,346.87,656,350.87,652,346.87,656,355.87" style="stroke:#008000;stroke-width:1.0;"/></g><!--link collector to apm--><g id="link_collector_apm"><path d="M676.86,296.24 C684.06,313.2 686.4104,333.4338 679.1704,350.3538 " fill="none" id="collector-to-apm-2" style="stroke:#0000FF;stroke-width:1.0;"/><polygon fill="#0000FF" points="676.81,355.87,684.028,349.1693,678.777,351.2732,676.6731,346.0221,676.81,355.87" style="stroke:#0000FF;stroke-width:1.0;"/></g><!--SRC=[XPF1JiCm38RlVGeBpaDQSqL8I7122CIu0K9fQrXOcbH9GAeGxquI1zQ1kzrYV_Pl9tRyHfb1Ejb3Q_l16ZHX5KQDuB0DqhnghAgNY16ERiUmjWPwrJhhqNse5c5v1D93xvVmMG4yt0nexb5Z7sNS2AkBgwV4RK2zJFpYBKhQxEloSLbzxTMlYtvzKBzczUi3-gBeYuFwWjKNIR-JGJRIfnBMXrU7FgjsJHJTmPTQ-g1QZzArwno3_jasgHdPAAt2I1b_-sYjrd4SrkNAlrOCFB-zXbLCHq9owAk7AzL88xEzoSVeaY-RuacdsPxWtMFtQ9eHmXgZsg1LAuEovgVPwFfxgJli55tOfHFXF75OBCwstS9nv1dKSq1mWDTgz3loOhz4i8INYqD3m-jjaU1HLLOPJaxIp8jParaiKQnfR1x5JZWDPvBnCws6UvZ_NhfWN88C_krMpfgdT9jvJkgqKd2wMCmKs1j0DVQ6K9d9Ez7QJTzfnoCcdcbQtiPfrjGXjewAvi0yC0lA3JX4dPTVmkZnXBBexp19BA2ShIFXDBYSmRYfQGQGq3S0]--></g></svg>