<svg xmlns="http://www.w3.org/2000/svg" xmlns:xlink="http://www.w3.org/1999/xlink" contentStyleType="text/css" height="514px" preserveAspectRatio="none" style="width:1057px;height:514px;background:#FFFFFF;" version="1.1" viewBox="0 0 1057 514" width="1057px" zoomAndPan="magnify"><defs/><g><!--cluster ms1--><g id="cluster_ms1"><rect fill="none" height="87" rx="2.5" ry="2.5" style="stroke:#181818;stroke-width:1.0;" width="309" x="701.45" y="7"/><path d="M887.2293,7 L887.2293,16.2969 L877.2293,26.2969 L701.45,26.2969 " fill="none" style="stroke:#181818;stroke-width:1.0;"/><text fill="#000000" font-family="sans-serif" font-size="14" font-weight="bold" lengthAdjust="spacing" textLength="175.7793" x="704.45" y="20.9951">Python microservice 1</text></g><!--cluster ms2--><g id="cluster_ms2"><rect fill="none" height="87" rx="2.5" ry="2.5" style="stroke:#181818;stroke-width:1.0;" width="309" x="366.45" y="7"/><path d="M552.2293,7 L552.2293,16.2969 L542.2293,26.2969 L366.45,26.2969 " fill="none" style="stroke:#181818;stroke-width:1.0;"/><text fill="#000000" font-family="sans-serif" font-size="14" font-weight="bold" lengthAdjust="spacing" textLength="175.7793" x="369.45" y="20.9951">Python microservice 2</text></g><!--cluster ms3--><g id="cluster_ms3"><rect fill="none" height="87" rx="2.5" ry="2.5" style="stroke:#181818;stroke-width:1.0;" width="309" x="33.45" y="7"/><path d="M219.2293,7 L219.2293,16.2969 L209.2293,26.2969 L33.45,26.2969 " fill="none" style="stroke:#181818;stroke-width:1.0;"/><text fill="#000000" font-family="sans-serif" font-size="14" font-weight="bold" lengthAdjust="spacing" textLength="175.7793" x="36.45" y="20.9951">Python microservice 3</text></g><!--entity otel1--><g id="elem_otel1"><rect fill="#F1F1F1" height="36.2969" rx="2.5" ry="2.5" style="stroke:#181818;stroke-width:0.5;" width="171.0127" x="822.95" y="42"/><text fill="#000000" font-family="sans-serif" font-size="14" lengthAdjust="spacing" textLength="151.0127" x="832.95" y="64.9951">OpenTelementry SDK</text></g><!--entity django1--><g id="elem_django1"><rect fill="#F1F1F1" height="36.2969" rx="2.5" ry="2.5" style="stroke:#181818;stroke-width:0.5;" width="69.5742" x="717.45" y="42"/><text fill="#000000" font-family="sans-serif" font-size="14" lengthAdjust="spacing" textLength="49.5742" x="727.45" y="64.9951">Django</text></g><!--entity otel2--><g id="elem_otel2"><rect fill="#F1F1F1" height="36.2969" rx="2.5" ry="2.5" style="stroke:#181818;stroke-width:0.5;" width="171.0127" x="382.95" y="42"/><text fill="#000000" font-family="sans-serif" font-size="14" lengthAdjust="spacing" textLength="151.0127" x="392.95" y="64.9951">OpenTelementry SDK</text></g><!--entity django2--><g id="elem_django2"><rect fill="#F1F1F1" height="36.2969" rx="2.5" ry="2.5" style="stroke:#181818;stroke-width:0.5;" width="69.5742" x="589.45" y="42"/><text fill="#000000" font-family="sans-serif" font-size="14" lengthAdjust="spacing" textLength="49.5742" x="599.45" y="64.9951">Django</text></g><!--entity otel3--><g id="elem_otel3"><rect fill="#F1F1F1" height="36.2969" rx="2.5" ry="2.5" style="stroke:#181818;stroke-width:0.5;" width="171.0127" x="49.95" y="42"/><text fill="#000000" font-family="sans-serif" font-size="14" lengthAdjust="spacing" textLength="151.0127" x="59.95" y="64.9951">OpenTelementry SDK</text></g><!--entity django3--><g id="elem_django3"><rect fill="#F1F1F1" height="36.2969" rx="2.5" ry="2.5" style="stroke:#181818;stroke-width:0.5;" width="69.5742" x="256.45" y="42"/><text fill="#000000" font-family="sans-serif" font-size="14" lengthAdjust="spacing" textLength="49.5742" x="266.45" y="64.9951">Django</text></g><!--entity db--><g id="elem_db"><path d="M400.45,156.5 C400.45,146.5 440.6204,146.5 440.6204,146.5 C440.6204,146.5 480.7908,146.5 480.7908,156.5 L480.7908,181.7969 C480.7908,191.7969 440.6204,191.7969 440.6204,191.7969 C440.6204,191.7969 400.45,191.7969 400.45,181.7969 L400.45,156.5 " fill="#F1F1F1" style="stroke:#181818;stroke-width:0.5;"/><path d="M400.45,156.5 C400.45,166.5 440.6204,166.5 440.6204,166.5 C440.6204,166.5 480.7908,166.5 480.7908,156.5 " fill="none" style="stroke:#181818;stroke-width:0.5;"/><text fill="#000000" font-family="sans-serif" font-size="14" lengthAdjust="spacing" textLength="60.3408" x="410.45" y="183.4951">Postgres</text></g><!--entity es_observability--><g id="elem_es_observability"><path d="M247.45,462 C247.45,452 303.6985,452 303.6985,452 C303.6985,452 359.9471,452 359.9471,462 L359.9471,487.2969 C359.9471,497.2969 303.6985,497.2969 303.6985,497.2969 C303.6985,497.2969 247.45,497.2969 247.45,487.2969 L247.45,462 " fill="#F1F1F1" style="stroke:#181818;stroke-width:0.5;"/><path d="M247.45,462 C247.45,472 303.6985,472 303.6985,472 C303.6985,472 359.9471,472 359.9471,462 " fill="none" style="stroke:#181818;stroke-width:0.5;"/><text fill="#000000" font-family="sans-serif" font-size="14" lengthAdjust="spacing" textLength="92.4971" x="257.45" y="488.9951">Elasticsearch</text></g><!--entity es_app--><g id="elem_es_app"><path d="M515.95,148 C515.95,138 591.2571,138 591.2571,138 C591.2571,138 666.5643,138 666.5643,148 L666.5643,189.5938 C666.5643,199.5938 591.2571,199.5938 591.2571,199.5938 C591.2571,199.5938 515.95,199.5938 515.95,189.5938 L515.95,148 " fill="#F1F1F1" style="stroke:#181818;stroke-width:0.5;"/><path d="M515.95,148 C515.95,158 591.2571,158 591.2571,158 C591.2571,158 666.5643,158 666.5643,148 " fill="none" style="stroke:#181818;stroke-width:0.5;"/><text fill="#000000" font-family="sans-serif" font-size="14" lengthAdjust="spacing" textLength="130.6143" x="525.95" y="174.9951">Elasticsearch used</text><text fill="#000000" font-family="sans-serif" font-size="14" lengthAdjust="spacing" textLength="126.2734" x="525.95" y="191.292">by the application</text></g><!--entity redis--><g id="elem_redis"><path d="M702.45,156.5 C702.45,146.5 731.6556,146.5 731.6556,146.5 C731.6556,146.5 760.8611,146.5 760.8611,156.5 L760.8611,181.7969 C760.8611,191.7969 731.6556,191.7969 731.6556,191.7969 C731.6556,191.7969 702.45,191.7969 702.45,181.7969 L702.45,156.5 " fill="#F1F1F1" style="stroke:#181818;stroke-width:0.5;"/><path d="M702.45,156.5 C702.45,166.5 731.6556,166.5 731.6556,166.5 C731.6556,166.5 760.8611,166.5 760.8611,156.5 " fill="none" style="stroke:#181818;stroke-width:0.5;"/><text fill="#000000" font-family="sans-serif" font-size="14" lengthAdjust="spacing" textLength="38.4111" x="712.45" y="183.4951">Redis</text></g><!--entity kibana--><g id="elem_kibana"><rect fill="#F1F1F1" height="36.2969" rx="2.5" ry="2.5" style="stroke:#181818;stroke-width:0.5;" width="67.9883" x="326.45" y="356"/><text fill="#000000" font-family="sans-serif" font-size="14" lengthAdjust="spacing" textLength="47.9883" x="336.45" y="378.9951">Kibana</text></g><!--entity prometheus--><g id="elem_prometheus"><rect fill="#F1F1F1" height="36.2969" rx="2.5" ry="2.5" style="stroke:#181818;stroke-width:0.5;" width="104.1572" x="486.45" y="356"/><text fill="#000000" font-family="sans-serif" font-size="14" lengthAdjust="spacing" textLength="84.1572" x="496.45" y="378.9951">Prometheus</text></g><!--entity grafana--><g id="elem_grafana"><rect fill="#F1F1F1" height="36.2969" rx="2.5" ry="2.5" style="stroke:#181818;stroke-width:0.5;" width="76.1436" x="500.45" y="456.5"/><text fill="#000000" font-family="sans-serif" font-size="14" lengthAdjust="spacing" textLength="56.1436" x="510.45" y="479.4951">Grafana</text></g><!--entity jaeger--><g id="elem_jaeger"><rect fill="#F1F1F1" height="36.2969" rx="2.5" ry="2.5" style="stroke:#181818;stroke-width:0.5;" width="64.5771" x="225.95" y="356"/><text fill="#000000" font-family="sans-serif" font-size="14" lengthAdjust="spacing" textLength="44.5771" x="235.95" y="378.9951">Jaeger</text></g><!--entity apm--><g id="elem_apm"><rect fill="#F1F1F1" height="36.2969" rx="2.5" ry="2.5" style="stroke:#181818;stroke-width:0.5;" width="100.459" x="90.45" y="356"/><text fill="#000000" font-family="sans-serif" font-size="14" lengthAdjust="spacing" textLength="80.459" x="100.45" y="378.9951">APM Server</text></g><!--entity collector--><g id="elem_collector"><rect fill="#F1F1F1" height="36.2969" rx="2.5" ry="2.5" style="stroke:#181818;stroke-width:0.5;" width="202.3281" x="490.45" y="260"/><text fill="#000000" font-family="sans-serif" font-size="14" lengthAdjust="spacing" textLength="182.3281" x="500.45" y="282.9951">OpenTelementry collector</text></g><!--entity kafka--><g id="elem_kafka"><rect fill="#F1F1F1" height="36.2969" rx="2.5" ry="2.5" style="stroke:#181818;stroke-width:0.5;" width="59.375" x="795.95" y="151"/><text fill="#000000" font-family="sans-serif" font-size="14" lengthAdjust="spacing" textLength="39.375" x="805.95" y="173.9951">Kafka</text></g><!--link otel1 to prometheus--><g id="link_otel1_prometheus"><path d="M943.54,78.25 C965.76,91.29 992.64,111.47 1005.45,138 C1035.99,201.23 1050.89,242.46 1005.45,296 C952.68,358.18 706.9687,370.1067 596.5587,372.3767 " fill="none" id="otel1-to-prometheus" style="stroke:#0000FF;stroke-width:1.0;"/><polygon fill="#0000FF" points="590.56,372.5,599.6403,376.3142,595.5589,372.3972,599.4759,368.3158,590.56,372.5" style="stroke:#0000FF;stroke-width:1.0;"/></g><!--link otel2 to prometheus--><g id="link_otel2_prometheus"><path d="M438.96,78.04 C418.9,91.46 393.98,112.2 382.45,138 C371.21,163.16 372.57,174.28 382.45,200 C409.07,269.27 472.8946,324.5006 509.6246,352.2806 " fill="none" id="otel2-to-prometheus" style="stroke:#0000FF;stroke-width:1.0;"/><polygon fill="#0000FF" points="514.41,355.9,509.6448,347.2807,510.4221,352.8839,504.819,353.6612,514.41,355.9" style="stroke:#0000FF;stroke-width:1.0;"/></g><!--link otel3 to prometheus--><g id="link_otel3_prometheus"><path d="M153.26,78.06 C195.81,118.4 307.53,221.84 410.45,296 C441.91,318.66 475.0392,338.1988 501.5192,352.9588 " fill="none" id="otel3-to-prometheus" style="stroke:#0000FF;stroke-width:1.0;"/><polygon fill="#0000FF" points="506.76,355.88,500.8463,348.0042,502.3926,353.4456,496.9513,354.992,506.76,355.88" style="stroke:#0000FF;stroke-width:1.0;"/></g><!--link prometheus to grafana--><g id="link_prometheus_grafana"><path d="M538.45,392.16 C538.45,410.13 538.45,432.19 538.45,450.21 " fill="none" id="prometheus-to-grafana" style="stroke:#0000FF;stroke-width:1.0;"/><polygon fill="#0000FF" points="538.45,456.21,542.45,447.21,538.45,451.21,534.45,447.21,538.45,456.21" style="stroke:#0000FF;stroke-width:1.0;"/></g><!--link otel1 to jaeger--><g id="link_otel1_jaeger"><path d="M918.04,78.16 C940.58,121.05 990.91,233.88 934.45,296 C840.47,399.42 445.08,326.64 308.45,356 C302.72,357.23 302.4383,357.0932 296.6783,358.9232 " fill="none" id="otel1-to-jaeger" style="stroke:#FF0000;stroke-width:1.0;"/><polygon fill="#FF0000" points="290.96,360.74,300.7487,361.8271,295.7253,359.226,298.3263,354.2026,290.96,360.74" style="stroke:#FF0000;stroke-width:1.0;"/></g><!--link otel2 to jaeger--><g id="link_otel2_jaeger"><path d="M438.79,78.11 C416.81,91.98 387.34,113.25 367.45,138 C310.41,208.99 277.11,308.9559 264.97,350.0459 " fill="none" id="otel2-to-jaeger" style="stroke:#FF0000;stroke-width:1.0;"/><polygon fill="#FF0000" points="263.27,355.8,269.6561,348.3022,264.6867,351.0049,261.984,346.0355,263.27,355.8" style="stroke:#FF0000;stroke-width:1.0;"/></g><!--link otel3 to jaeger--><g id="link_otel3_jaeger"><path d="M135.22,78.09 C135.36,118.5 139.87,222.09 179.45,296 C192.56,320.48 211.4339,338.2464 229.4339,352.2464 " fill="none" id="otel3-to-jaeger" style="stroke:#FF0000;stroke-width:1.0;"/><polygon fill="#FF0000" points="234.17,355.93,229.5216,347.2471,230.2232,352.8603,224.6101,353.5619,234.17,355.93" style="stroke:#FF0000;stroke-width:1.0;"/></g><!--link otel1 to apm--><g id="link_otel1_apm"><path d="M908.1,78.18 C906.69,106.35 900.32,162.94 872.45,200 C822.16,266.9 789.71,269.12 710.45,296 C497.66,368.16 429.44,315.34 208.45,356 C202.71,357.06 202.5824,356.9975 196.6524,358.3375 " fill="none" id="otel1-to-apm" style="stroke:#008000;stroke-width:1.0;"/><polygon fill="#008000" points="190.8,359.66,200.4603,361.5779,195.677,358.5579,198.697,353.7747,190.8,359.66" style="stroke:#008000;stroke-width:1.0;"/></g><!--link otel2 to apm--><g id="link_otel2_apm"><path d="M423.96,78.04 C392.86,91.34 351.51,111.93 320.45,138 C240.36,205.25 176.8386,308.8715 152.9286,350.6815 " fill="none" id="otel2-to-apm" style="stroke:#008000;stroke-width:1.0;"/><polygon fill="#008000" points="149.95,355.89,157.8902,350.063,152.4321,351.5496,150.9456,346.0916,149.95,355.89" style="stroke:#008000;stroke-width:1.0;"/></g><!--link otel3 to apm--><g id="link_otel3_apm"><path d="M100.01,78.16 C77.57,91.16 50.41,111.34 37.45,138 C6.76,201.16 6,233.22 37.45,296 C51.05,323.15 74.0043,340.3037 97.4743,353.1237 " fill="none" id="otel3-to-apm" style="stroke:#008000;stroke-width:1.0;"/><polygon fill="#008000" points="102.74,356,96.759,348.1752,98.352,353.6031,92.924,355.1961,102.74,356" style="stroke:#008000;stroke-width:1.0;"/></g><!--link django1 to db--><g id="link_django1_db"><path d="M725.19,78.01 C710.84,86.3 692.7,95.8 675.45,102 C599.91,129.15 574.16,111.3 498.45,138 C491.82,140.34 485,143.3 478.48,146.45 " fill="none" id="django1-db" style="stroke:#181818;stroke-width:1.0;stroke-dasharray:7.0,7.0;"/></g><!--link django2 to db--><g id="link_django2_db"><path d="M604.26,78.16 C594.65,85.92 582.8,94.91 571.45,102 C540.77,121.16 530.74,121.69 498.45,138 C492.69,140.91 486.61,144.02 480.65,147.08 " fill="none" id="django2-db" style="stroke:#181818;stroke-width:1.0;stroke-dasharray:7.0,7.0;"/></g><!--link django3 to db--><g id="link_django3_db"><path d="M315.39,78.19 C341.22,96.74 382.41,126.32 410.4,146.42 " fill="none" id="django3-db" style="stroke:#181818;stroke-width:1.0;stroke-dasharray:7.0,7.0;"/></g><!--reverse link kibana to es_observability--><g id="link_kibana_es_observability"><path d="M347.5161,397.3539 C337.9561,413.8839 326.44,433.78 316.06,451.72 " fill="none" id="kibana-backto-es_observability" style="stroke:#008000;stroke-width:1.0;"/><polygon fill="#008000" points="350.52,392.16,342.5516,397.9483,348.0168,396.4883,349.4768,401.9535,350.52,392.16" style="stroke:#008000;stroke-width:1.0;"/></g><!--link django1 to es_app--><g id="link_django1_es_app"><path d="M726.59,78.19 C702.41,94.26 665.78,118.6 636.76,137.89 " fill="none" id="django1-es_app" style="stroke:#181818;stroke-width:1.0;stroke-dasharray:7.0,7.0;"/></g><!--link django2 to es_app--><g id="link_django2_es_app"><path d="M619.15,78.19 C614.2,94.26 606.69,118.6 600.74,137.89 " fill="none" id="django2-es_app" style="stroke:#181818;stroke-width:1.0;stroke-dasharray:7.0,7.0;"/></g><!--link django3 to es_app--><g id="link_django3_es_app"><path d="M319.19,78.18 C333.02,86.21 350.22,95.44 366.45,102 C422.43,124.63 439.57,120.82 497.45,138 C503.45,139.78 509.64,141.66 515.86,143.58 " fill="none" id="django3-es_app" style="stroke:#181818;stroke-width:1.0;stroke-dasharray:7.0,7.0;"/></g><!--link django1 to redis--><g id="link_django1_redis"><path d="M749.08,78.19 C745.44,96.74 739.63,126.32 735.69,146.42 " fill="none" id="django1-redis" style="stroke:#181818;stroke-width:1.0;stroke-dasharray:7.0,7.0;"/></g><!--link django2 to redis--><g id="link_django2_redis"><path d="M641.64,78.19 C660.19,96.74 689.77,126.32 709.87,146.42 " fill="none" id="django2-redis" style="stroke:#181818;stroke-width:1.0;stroke-dasharray:7.0,7.0;"/></g><!--link django3 to redis--><g id="link_django3_redis"><path d="M316.72,78.03 C330.77,86.66 348.91,96.45 366.45,102 C502.06,144.92 550.38,90.51 684.45,138 C690.57,140.17 696.7,143.25 702.42,146.63 " fill="none" id="django3-redis" style="stroke:#181818;stroke-width:1.0;stroke-dasharray:7.0,7.0;"/></g><!--link django1 to kafka--><g id="link_django1_kafka"><path d="M764.18,78.19 C777.8,98.16 800.14,130.9 813.75,150.85 " fill="none" id="django1-kafka" style="stroke:#181818;stroke-width:1.0;stroke-dasharray:7.0,7.0;"/></g><!--link django2 to kafka--><g id="link_django2_kafka"><path d="M655.73,78.13 C669.64,85.62 686.28,94.42 701.45,102 C735.25,118.88 745.35,119.8 778.45,138 C785.58,141.92 793.09,146.49 799.96,150.88 " fill="none" id="django2-kafka" style="stroke:#181818;stroke-width:1.0;stroke-dasharray:7.0,7.0;"/></g><!--link django3 to kafka--><g id="link_django3_kafka"><path d="M316.32,78 C330.4,86.73 348.7,96.63 366.45,102 C542.39,155.22 604.42,78.85 778.45,138 C787.25,140.99 796.06,145.96 803.64,151 " fill="none" id="django3-kafka" style="stroke:#181818;stroke-width:1.0;stroke-dasharray:7.0,7.0;"/></g><!--link es_app to collector--><g id="link_es_app_collector"><path d="M591.45,200.09 C591.45,219.38 591.45,237.72 591.45,253.79 " fill="none" id="es_app-to-collector" style="stroke:#0000FF;stroke-width:1.0;"/><polygon fill="#0000FF" points="591.45,259.79,595.45,250.79,591.45,254.79,587.45,250.79,591.45,259.79" style="stroke:#0000FF;stroke-width:1.0;"/></g><!--link kafka to collector--><g id="link_kafka_collector"><path d="M795.7,174.55 C775.3,180.78 758.66,192.1 743.45,200 C697.66,223.8 648.2719,243.1986 616.4819,257.4986 " fill="none" id="kafka-to-collector" style="stroke:#FF0000;stroke-width:1.0;"/><polygon fill="#FF0000" points="611.01,259.96,620.8588,259.9158,615.5699,257.9088,617.5769,252.62,611.01,259.96" style="stroke:#FF0000;stroke-width:1.0;"/></g><!--link kafka to collector--><g id="link_kafka_collector"><path d="M800.57,187.04 C793.57,191.51 785.84,196.16 778.45,200 C732.66,223.8 683.4231,243.5671 645.0031,257.8671 " fill="none" id="kafka-to-collector-1" style="stroke:#0000FF;stroke-width:1.0;"/><polygon fill="#0000FF" points="639.38,259.96,649.21,260.5693,644.0659,258.2159,646.4194,253.0718,639.38,259.96" style="stroke:#0000FF;stroke-width:1.0;"/></g><!--link kafka to collector--><g id="link_kafka_collector"><path d="M834.25,187.04 C828.57,191.51 820.84,196.16 813.45,200 C767.66,223.8 718.5187,243.8443 673.4787,258.1443 " fill="none" id="kafka-to-collector-2" style="stroke:#008000;stroke-width:1.0;"/><polygon fill="#008000" points="667.76,259.96,677.5485,261.049,672.5256,258.447,675.1276,253.4241,667.76,259.96" style="stroke:#008000;stroke-width:1.0;"/></g><!--link redis to collector--><g id="link_redis_collector"><path d="M703.12,191.65 C676.76,211.8 642.757,237.7864 618.527,256.3064 " fill="none" id="redis-to-collector" style="stroke:#0000FF;stroke-width:1.0;"/><polygon fill="#0000FF" points="613.76,259.95,623.3395,257.6626,617.7325,256.9137,618.4814,251.3066,613.76,259.95" style="stroke:#0000FF;stroke-width:1.0;"/></g><!--link db to collector--><g id="link_db_collector"><path d="M471.01,191.65 C499.45,211.8 536.3642,237.9614 562.5042,256.4814 " fill="none" id="db-to-collector" style="stroke:#0000FF;stroke-width:1.0;"/><polygon fill="#0000FF" points="567.4,259.95,562.3687,251.4832,563.3202,257.0595,557.7439,258.0109,567.4,259.95" style="stroke:#0000FF;stroke-width:1.0;"/></g><!--link collector to jaeger--><g id="link_collector_jaeger"><path d="M524.22,296.04 C466.66,310.92 381.74,333.6 308.45,356 C302.84,357.72 302.6031,357.7456 296.8631,359.6556 " fill="none" id="collector-to-jaeger" style="stroke:#FF0000;stroke-width:1.0;"/><polygon fill="#FF0000" points="291.17,361.55,300.9726,362.5038,295.9142,359.9713,298.4467,354.913,291.17,361.55" style="stroke:#FF0000;stroke-width:1.0;"/></g><!--link collector to prometheus--><g id="link_collector_prometheus"><path d="M581.73,296.24 C572.17,313.2 560.5968,333.7235 551.0568,350.6435 " fill="none" id="collector-to-prometheus" style="stroke:#0000FF;stroke-width:1.0;"/><polygon fill="#0000FF" points="548.11,355.87,556.0146,349.9948,550.5657,351.5146,549.0459,346.0657,548.11,355.87" style="stroke:#0000FF;stroke-width:1.0;"/></g><!--link collector to apm--><g id="link_collector_apm"><path d="M500.66,296.02 C422.9,310.89 308.03,333.56 208.45,356 C202.64,357.31 202.392,357.3303 196.352,358.7903 " fill="none" id="collector-to-apm" style="stroke:#008000;stroke-width:1.0;"/><polygon fill="#008000" points="190.52,360.2,200.2079,361.9734,195.38,359.0252,198.3282,354.1974,190.52,360.2" style="stroke:#008000;stroke-width:1.0;"/></g><!--link apm to es_observability--><g id="link_apm_es_observability"><path d="M168.85,392.16 C196.3,408.75 232.865,430.8465 262.565,448.7965 " fill="none" id="apm-to-es_observability" style="stroke:#008000;stroke-width:1.0;"/><polygon fill="#008000" points="267.7,451.9,262.0665,443.8214,263.4208,449.3138,257.9285,450.6681,267.7,451.9" style="stroke:#008000;stroke-width:1.0;"/></g><!--SRC=[XLDDYnin3BtxLuZDEGiPNqkXiANGfJGqlKrBqSmeYJSUUx2Tmb3wt-kl9CvaqjoazwGdMPBjGQW13VRGwdxGYfJRk54I66eTgfqanhQU9dXQZswl5VIYDTgI-IrQWjKJe8NUhk0F0wY_3gI-awJUovWHDY-lFmEl7SbLu5_UlAIEM1VD5VlxN_qgwrSFzQjP_Ug1Fi_w_A4-dzNdGRz3XmtQK49RjpDaeshNUD4h-gD4wqHh2KsxZp5aV-acD8EDaCADCQD-5GqgZ6KEqMJrskYUt9wEDiB3sMNr9uFRK_WksQp-ZBGZ4x6tQBBwm_eBR7of3EFGi-c3MosbtxjE4MVFTuJRGsueM7SV1KTBtG_LZE2RyoK6ALfqGglJQpqqdSetwaIQc0bMebcy6LWktnTlXKKZZnIfwZx5vobM824WZ-h4NkgbUS72TrEKcgBy1Yqa_6nXuG-1LA4m0VaKPFbBmFDpk9tiLidD7iyUItS1xvRBsnkQqKkJBoMl45uWPLfSI9bL0lm2b3dfG8gS4k0NWELh25CuNzff6p5aIeKXpn8nPvR9aqY7DLl9JteMlm3JFLypDtTsJPVx3NR0xYti7m00]--></g></svg>